<svg width="25" height="24" viewBox="0 0 25 24" fill="none" xmlns="http://www.w3.org/2000/svg">
<path fill-rule="evenodd" clip-rule="evenodd" d="M18.2872 0.75C18.2872 0.335786 17.9514 0 17.5372 0C17.123 0 16.7872 0.335786 16.7872 0.75V1.42464H7.49507V0.75C7.49507 0.335786 7.15929 0 6.74507 0C6.33086 0 5.99507 0.335786 5.99507 0.75V1.42464H2C0.895431 1.42464 0 2.32007 0 3.42464V21.0092C0 22.1138 0.89543 23.0092 2 23.0092H22.2826C23.3872 23.0092 24.2826 22.1138 24.2826 21.0092V3.42464C24.2826 2.32007 23.3872 1.42464 22.2826 1.42464H18.2872V0.75ZM5.99507 4.79711V2.92464H2C1.72386 2.92464 1.5 3.1485 1.5 3.42464V7.41972H22.7826V3.42464C22.7826 3.1485 22.5588 2.92464 22.2826 2.92464H18.2872V4.79711C18.2872 5.21132 17.9514 5.54711 17.5372 5.54711C17.123 5.54711 16.7872 5.21132 16.7872 4.79711V2.92464H7.49507V4.79711C7.49507 5.21132 7.15929 5.54711 6.74507 5.54711C6.33086 5.54711 5.99507 5.21132 5.99507 4.79711ZM1.5 21.0092V8.91972H22.7826V21.0092C22.7826 21.2854 22.5588 21.5092 22.2826 21.5092H2C1.72386 21.5092 1.5 21.2854 1.5 21.0092ZM15.5142 13.5658C15.5142 14.3108 14.9102 14.9148 14.1652 14.9148C13.4201 14.9148 12.8161 14.3108 12.8161 13.5658C12.8161 12.8207 13.4201 12.2168 14.1652 12.2168C14.9102 12.2168 15.5142 12.8207 15.5142 13.5658ZM11.4667 13.5659C11.4667 14.3109 10.8627 14.9149 10.1176 14.9149C9.37258 14.9149 8.7686 14.3109 8.7686 13.5659C8.7686 12.8208 9.37258 12.2168 10.1176 12.2168C10.8627 12.2168 11.4667 12.8208 11.4667 13.5659ZM18.2117 14.9148C18.9567 14.9148 19.5607 14.3108 19.5607 13.5658C19.5607 12.8207 18.9567 12.2168 18.2117 12.2168C17.4666 12.2168 16.8627 12.8207 16.8627 13.5658C16.8627 14.3108 17.4666 14.9148 18.2117 14.9148ZM11.4665 17.6131C11.4665 18.3582 10.8625 18.9622 10.1174 18.9622C9.37238 18.9622 8.76839 18.3582 8.76839 17.6131C8.76839 16.8681 9.37238 16.2641 10.1174 16.2641C10.8625 16.2641 11.4665 16.8681 11.4665 17.6131ZM7.41962 17.6132C7.41962 18.3582 6.81564 18.9622 6.07059 18.9622C5.32554 18.9622 4.72155 18.3582 4.72155 17.6132C4.72155 16.8681 5.32554 16.2641 6.07059 16.2641C6.81564 16.2641 7.41962 16.8681 7.41962 17.6132ZM14.1645 18.9622C14.9095 18.9622 15.5135 18.3582 15.5135 17.6131C15.5135 16.8681 14.9095 16.2641 14.1645 16.2641C13.4194 16.2641 12.8154 16.8681 12.8154 17.6131C12.8154 18.3582 13.4194 18.9622 14.1645 18.9622Z" fill="#07D2FF"/>
</svg>
