<svg width="34" height="26" viewBox="0 0 34 26" fill="none" xmlns="http://www.w3.org/2000/svg">
<g clip-path="url(#clip0_650_1479)">
<path d="M0 19.7431C0.15555 18.9403 0.315194 18.1415 0.458464 17.3387C0.998796 14.3656 1.49819 11.3884 2.07946 8.4233C2.37009 6.93873 3.22153 5.83742 4.76065 5.38156C4.96123 5.32105 5.17818 5.2686 5.37876 5.29281C5.71852 5.33315 5.88225 5.16775 6.06646 4.92167C6.75825 3.98978 7.68745 3.4008 8.82133 3.09824C8.98916 3.05386 9.17337 2.92477 9.2757 2.78358C10.3686 1.21833 12.2721 0.484119 14.1673 0.899634C14.2942 0.927873 14.4744 0.8956 14.5767 0.818952C16.0544 -0.270265 17.9579 -0.274299 19.4192 0.810883C19.5216 0.887532 19.7017 0.931908 19.8286 0.903669C21.7607 0.480084 23.6518 1.21833 24.7611 2.82392C24.843 2.94494 24.9986 3.05386 25.1377 3.09017C26.3739 3.39676 27.3441 4.06643 28.0768 5.08707C28.1382 5.17178 28.2528 5.27264 28.347 5.27264C30.058 5.28877 31.11 6.23276 31.7036 7.69715C31.9819 8.38296 32.072 9.14944 32.2112 9.88769C32.7883 13.0424 33.341 16.1971 33.9222 19.3518C34.2374 21.0582 33.5579 22.3895 31.9492 23.1035C29.3703 24.2452 26.6687 24.9713 23.8892 25.4352C21.032 25.9113 18.1503 26.0928 15.2562 25.9597C10.7125 25.7499 6.29978 24.935 2.10811 23.1358C0.994703 22.6557 0.270166 21.8771 0.0450277 20.683C0.0409343 20.6548 0.0122803 20.6266 0 20.5983C0 20.3159 0 20.0295 0 19.7471L0 19.7431ZM3.02095 10.6905C3.00458 10.7631 2.99229 10.7994 2.98411 10.8397C2.43968 13.8532 1.89116 16.8667 1.35083 19.8843C1.21165 20.6629 1.64146 21.4455 2.37828 21.8045C2.64435 21.9336 2.92271 22.0506 3.19697 22.1636C7.01204 23.7167 11.0072 24.4549 15.1129 24.6446C18.3877 24.7979 21.6379 24.58 24.8553 23.9386C27.1476 23.4787 29.3785 22.8252 31.5112 21.8691C32.4077 21.4657 32.8088 20.7113 32.641 19.7713C32.2316 17.4759 31.8223 15.1764 31.413 12.881C31.282 12.1589 31.1469 11.4368 31.0159 10.7187C30.5165 10.993 30.0621 11.2916 29.5709 11.5013C26.5213 12.8124 23.2711 13.1836 19.9964 13.3934C19.6198 13.4176 19.3373 13.119 19.3333 12.76C19.3292 12.3969 19.5993 12.1266 20.0046 12.0863C21.118 11.9774 22.2314 11.8967 23.3366 11.7474C25.1132 11.5134 26.8815 11.1907 28.5394 10.4968C29.1739 10.2346 29.7551 9.84331 30.3323 9.46814C30.6516 9.2624 30.7294 8.92756 30.6188 8.54029C30.2668 7.28567 29.1493 6.30941 27.9868 6.64021C27.602 6.74913 27.4055 6.5918 27.1967 6.20452C26.6236 5.13951 25.7313 4.50212 24.5278 4.31655C24.1717 4.26007 23.9547 4.10274 23.7869 3.79614C23.001 2.36806 21.38 1.7468 19.8204 2.29141C19.4397 2.42454 19.149 2.36806 18.8625 2.08567C17.79 1.0368 16.2304 1.04083 15.1498 2.0897C14.8714 2.35999 14.5931 2.42857 14.2206 2.29948C12.6078 1.7468 11.0195 2.35596 10.209 3.82842C10.0535 4.11081 9.84469 4.26007 9.51312 4.30848C8.29328 4.49405 7.39273 5.13144 6.81556 6.20856C6.5986 6.60794 6.4144 6.69265 5.95184 6.64424C5.71033 6.62004 5.46063 6.57566 5.2314 6.62407C4.21214 6.84192 3.73321 7.58016 3.41801 8.47977C3.27065 8.89932 3.35661 9.25433 3.71274 9.49234C4.2326 9.83928 4.75656 10.1983 5.32964 10.4363C7.37635 11.2875 9.55406 11.6224 11.7399 11.8765C12.4972 11.9653 13.2586 12.0096 14.02 12.0782C14.4252 12.1145 14.6954 12.3929 14.6831 12.756C14.6708 13.1352 14.3761 13.3893 13.9422 13.3853C13.8194 13.3853 13.6966 13.3853 13.5779 13.3691C12.1493 13.1997 10.7125 13.0868 9.30026 12.8487C7.10619 12.4857 4.93667 11.9935 3.02095 10.6864V10.6905Z" fill="#D98859"/>
<path d="M9.81592 19.9044C9.951 19.5212 10.1843 19.1379 10.1966 18.7466C10.2089 18.3553 9.93053 17.964 9.90597 17.5646C9.84867 16.5157 10.5405 15.6282 11.5556 15.3458C12.5462 15.0675 13.5982 15.4709 14.1304 16.3584C14.2532 16.5601 14.3801 16.6166 14.6011 16.6126C16.218 16.6045 17.8308 16.6045 19.4478 16.6126C19.6442 16.6126 19.7589 16.5682 19.8694 16.3866C20.5202 15.3055 21.8506 14.9465 22.9517 15.5395C24.0283 16.1204 24.4254 17.4073 23.8891 18.5368C23.84 18.6417 23.84 18.8112 23.8891 18.916C24.4295 20.0537 24.0201 21.3527 22.9231 21.9336C21.8342 22.5105 20.512 22.1434 19.8694 21.0703C19.7629 20.8928 19.6483 20.8403 19.4518 20.8444C17.8268 20.8524 16.1976 20.8524 14.5725 20.8444C14.3514 20.8444 14.245 20.921 14.1386 21.1025C13.6023 21.9901 12.5503 22.3975 11.5638 22.1191C10.5609 21.8368 9.89369 20.9654 9.82001 19.9084L9.81592 19.9044ZM22.8617 17.5485C22.7921 17.0523 22.4564 16.661 22.0102 16.5924C21.4986 16.5117 21.0769 16.778 20.9214 17.2782C20.7536 17.8107 20.6103 17.9196 20.0413 17.9196C18.0069 17.9196 15.9683 17.9196 13.9339 17.9196C13.4304 17.9196 13.2544 17.7865 13.1152 17.3306C12.976 16.8707 12.6854 16.6126 12.2638 16.5803C11.8544 16.548 11.486 16.7537 11.3141 17.1087C11.134 17.4839 11.2118 17.8591 11.5393 18.2181C11.8708 18.5772 11.8667 18.8838 11.5311 19.2509C11.2077 19.6059 11.134 19.9851 11.3223 20.3603C11.4942 20.7032 11.8667 20.9129 12.2433 20.8847C12.6854 20.8484 12.976 20.5942 13.1193 20.1182C13.2544 19.6785 13.4386 19.5413 13.9134 19.5413C15.9847 19.5413 18.0519 19.5413 20.1232 19.5413C20.5898 19.5413 20.774 19.6825 20.9091 20.1303C21.0524 20.5983 21.3512 20.8565 21.7933 20.8887C22.1699 20.917 22.5424 20.6991 22.7061 20.3522C22.8903 19.977 22.8166 19.6059 22.4851 19.2468C22.1535 18.8878 22.1699 18.5933 22.4851 18.2101C22.6447 18.0164 22.743 17.7744 22.8658 17.5525L22.8617 17.5485Z" fill="#D98859"/>
<path d="M2.97205 18.3231C3.11123 17.5283 3.26268 16.6812 3.41414 15.838C3.50829 15.3015 3.60244 14.765 3.71296 14.2325C3.80302 13.7927 4.11412 13.5749 4.51527 13.6515C4.87959 13.7242 5.08426 14.059 5.01058 14.4785C4.78135 15.7856 4.55211 17.0927 4.30651 18.3997C4.27785 18.5651 4.20827 18.7426 4.09774 18.8677C3.91354 19.0815 3.65565 19.146 3.3773 19.029C3.09076 18.908 2.96386 18.6821 2.97205 18.3271V18.3231Z" fill="#D98859"/>
<path d="M31.0446 18.4078C31.0446 18.7628 30.7949 19.0452 30.451 19.0774C30.1236 19.1097 29.8125 18.8919 29.7388 18.5288C29.5832 17.7381 29.4441 16.9474 29.3049 16.1527C29.1985 15.5758 29.092 14.9949 28.9979 14.418C28.9365 14.0509 29.1616 13.7201 29.5055 13.6556C29.8698 13.5829 30.2218 13.7766 30.2873 14.1356C30.5493 15.5274 30.7908 16.9192 31.0405 18.311C31.0446 18.3432 31.0446 18.3755 31.0487 18.4078H31.0446Z" fill="#D98859"/>
<path d="M11.3837 6.44653C11.748 6.4425 12.0222 6.65227 12.0836 6.95886C12.1491 7.30177 11.9608 7.59222 11.6129 7.72132C11.2649 7.85041 10.872 7.93916 10.5936 8.16104C10.2702 8.41922 10.0164 8.77826 9.79131 9.13326C9.55389 9.50844 9.25507 9.67787 8.89485 9.52861C8.53053 9.37935 8.38726 9.00417 8.57147 8.59672C9.08724 7.45103 9.97961 6.74909 11.2117 6.4667C11.2772 6.45056 11.3427 6.45056 11.3837 6.44653Z" fill="#D98859"/>
<path d="M25.5186 8.88718C25.5104 9.24219 25.3221 9.4802 25.0192 9.56088C24.7245 9.64157 24.4297 9.50441 24.266 9.22202C24.1432 9.00417 24.0368 8.77019 23.8812 8.57656C23.5292 8.12877 23.0543 7.87058 22.4935 7.74956C21.9655 7.63257 21.7444 7.12427 22.0269 6.72892C22.207 6.47477 22.469 6.40619 22.7596 6.4667C24.0368 6.74506 24.9455 7.46717 25.4572 8.66127C25.494 8.75002 25.5022 8.85088 25.5145 8.89122L25.5186 8.88718Z" fill="#D98859"/>
<path d="M19.1572 4.58277C18.9853 4.78447 18.8625 4.99425 18.6824 5.11931C18.4532 5.27664 18.1912 5.21209 17.9783 5.03459C17.5526 4.68765 17.0737 4.59084 16.5538 4.75624C16.3696 4.81271 16.2018 4.93374 16.038 5.04266C15.6983 5.26857 15.3299 5.2363 15.0924 4.94584C14.8591 4.65942 14.9082 4.28828 15.2112 4.01395C16.169 3.16275 17.8637 3.15468 18.8011 4.02202C18.9444 4.15111 19.018 4.35686 19.1572 4.5868V4.58277Z" fill="#D98859"/>
<path d="M17.6712 12.8406C17.6712 13.1956 17.3764 13.4861 17.0162 13.4901C16.6437 13.4942 16.3367 13.1916 16.3449 12.8245C16.3531 12.4695 16.6478 12.1911 17.0162 12.1952C17.3805 12.1952 17.6712 12.4856 17.6712 12.8406Z" fill="#D98859"/>
</g>
<defs>
<clipPath id="clip0_650_1479">
<rect width="34" height="26" fill="white"/>
</clipPath>
</defs>
</svg>
