<svg width="30" height="26" viewBox="0 0 30 26" fill="none" xmlns="http://www.w3.org/2000/svg">
<path d="M2.68565 11.2811C2.51357 12.0973 2.35071 13.4415 2.27389 14.379C2.194 15.3075 2.16327 16.154 2.17863 16.8246C2.20014 17.7379 2.30769 18.3417 2.51664 18.7301C4.15139 21.7491 6.84933 22.6442 7.82649 22.8778C8.20752 23.5211 8.73604 24.0763 9.39977 24.5314C10.0143 24.9532 10.7457 25.29 11.5815 25.5358C12.995 25.9545 14.3132 26 14.8141 26C14.854 26 14.8878 26 14.9124 26C14.9401 26 14.9708 26 14.9985 26C15.0077 26 15.02 26 15.0292 26C15.0476 26 15.0661 26 15.0906 26C15.5915 26 16.9067 25.9545 18.3233 25.5358C19.156 25.29 19.8904 24.9502 20.505 24.5314C21.1718 24.0763 21.7003 23.518 22.0783 22.8748C23.0554 22.6411 25.7534 21.7491 27.3881 18.727C27.511 18.4964 27.892 17.7986 27.6339 14.4549C27.5663 13.5689 27.4158 12.1762 27.2406 11.3266C28.9552 10.1797 30 8.25907 30 6.19582C30 2.77932 27.1853 0 23.7253 0C22.7328 0 21.7433 0.233633 20.8645 0.679659C20.1547 1.04073 19.5124 1.53834 18.987 2.13304C17.7671 1.86906 16.412 1.73859 14.9524 1.73859C13.4928 1.73859 12.196 1.86603 10.9976 2.11787C10.4722 1.5262 9.82997 1.03163 9.12322 0.673591C8.23517 0.227564 7.27952 0 6.27471 0C2.81471 0.00303419 0 2.78235 0 6.19886C0 7.30634 0.301137 8.39561 0.866537 9.34531C1.32439 10.113 1.94817 10.7744 2.68565 11.2811ZM17.4352 19.5857C17.4352 20.229 16.4335 20.9481 14.9985 20.9481C13.5635 20.9481 12.5617 20.232 12.5617 19.5857C12.5617 18.9394 13.5635 18.2234 14.9985 18.2234C16.4335 18.2234 17.4352 18.9394 17.4352 19.5857ZM19.5032 23.4027C18.4738 24.0763 17.1433 24.489 15.6991 24.5891V22.2861C16.4089 22.1951 17.0695 21.9645 17.6042 21.6156C18.3878 21.1028 18.8364 20.3625 18.8364 19.5857C18.8364 18.809 18.3878 18.0686 17.6042 17.5558C17.2846 17.3465 16.9221 17.1796 16.5287 17.0613C17.6503 17.2372 18.6766 17.6105 19.5032 18.1536C20.6064 18.8757 21.2148 19.8072 21.2148 20.7782C21.2148 21.7491 20.6064 22.6806 19.5032 23.4027ZM12.3927 17.5558C11.6091 18.0686 11.1605 18.809 11.1605 19.5857C11.1605 20.3625 11.6091 21.1028 12.3927 21.6156C12.9274 21.9645 13.588 22.1951 14.2979 22.2861V24.5891C12.8536 24.489 11.5231 24.0763 10.4937 23.4027C9.39056 22.6806 8.78214 21.7491 8.78214 20.7782C8.78214 19.8072 9.39056 18.8757 10.4937 18.1536C11.3234 17.6105 12.3466 17.2372 13.4682 17.0613C13.0749 17.1796 12.7092 17.3465 12.3927 17.5558ZM6.27471 1.38663C7.05214 1.38663 7.79576 1.56261 8.48407 1.90851C9.14166 2.23923 9.72242 2.72167 10.168 3.30727L10.4445 3.67137L10.8932 3.56214C12.0946 3.27086 13.4621 3.12522 14.9524 3.12522C16.4427 3.12522 17.8623 3.27996 19.0853 3.58035L19.537 3.69261L19.8167 3.32244C20.2622 2.73381 20.8461 2.24834 21.5036 1.91154C22.195 1.56261 22.9417 1.38359 23.7222 1.38359C26.4079 1.38359 28.5926 3.5409 28.5926 6.19279C28.5926 7.93745 27.6309 9.5486 26.0852 10.3982L25.5167 10.7107L25.7872 11.2872C25.8763 11.5239 26.1067 12.865 26.2389 14.6309C26.4079 16.9065 26.2542 17.8744 26.1497 18.0686C25.4645 19.3308 24.4843 20.3048 23.2306 20.9572C23.0032 21.0755 22.785 21.1726 22.5883 21.2515C22.6099 21.0937 22.6191 20.9329 22.6191 20.7691C22.6191 20.0226 22.3978 19.3066 21.9646 18.633C21.562 18.011 20.9966 17.4587 20.2776 16.9884C18.8579 16.06 16.9804 15.5472 14.9985 15.5472C13.0165 15.5472 11.139 16.06 9.71935 16.9884C9.00031 17.4587 8.43491 18.011 8.03237 18.633C7.5991 19.3035 7.37786 20.0226 7.37786 20.7691C7.37786 20.945 7.39015 21.118 7.41473 21.2909C6.39762 20.9056 4.80897 20.0196 3.75192 18.0686C3.63208 17.8441 3.47537 16.8549 3.66281 14.5763C3.80416 12.8619 4.04691 11.4875 4.13295 11.2447L4.40336 10.6804L3.84411 10.3618C3.11585 9.94608 2.50435 9.34835 2.07416 8.63228C1.63474 7.89497 1.40121 7.05146 1.40121 6.18975C1.40121 3.53787 3.58599 1.38056 6.27164 1.38056L6.27471 1.38663Z" fill="black"/>
<path d="M17.8499 14.5559C18.2775 14.8403 18.826 15 19.3962 15C19.5139 15 19.6348 14.9942 19.7526 14.9797C20.3878 14.9071 20.9642 14.6517 21.3825 14.2598C21.8381 13.8331 22.0581 13.27 21.9868 12.7213C21.9217 12.2163 21.6243 11.7634 21.1501 11.4441C20.7225 11.1597 20.174 11 19.6038 11C19.4861 11 19.3652 11.0058 19.2474 11.0203C18.6122 11.0929 18.0358 11.3483 17.6175 11.7402C17.1619 12.1669 16.9419 12.73 17.0132 13.2787C17.0783 13.7837 17.3757 14.2366 17.8499 14.5559ZM18.6184 12.6749C18.8074 12.4949 19.0987 12.373 19.4148 12.3353C19.4768 12.3295 19.5418 12.3237 19.6038 12.3237C20.112 12.3237 20.5428 12.5675 20.583 12.8752C20.6078 13.0755 20.4684 13.2409 20.3816 13.3222C20.1895 13.5022 19.9013 13.6241 19.5852 13.6618C19.5232 13.6676 19.4582 13.6734 19.3962 13.6734C18.888 13.6734 18.4572 13.4296 18.417 13.1219C18.3922 12.9216 18.5316 12.7562 18.6184 12.6749Z" fill="black"/>
<path d="M8.01318 12.7213C7.94191 13.2729 8.16193 13.8331 8.61746 14.2598C9.0358 14.6517 9.61218 14.9071 10.2474 14.9797C10.3652 14.9942 10.4861 15 10.6038 15C11.174 15 11.7225 14.8433 12.1501 14.5559C12.6243 14.2395 12.9248 13.7837 12.9868 13.2787C13.0581 12.7271 12.8381 12.1669 12.3825 11.7402C11.9673 11.3483 11.3878 11.0929 10.7526 11.0203C10.6348 11.0058 10.5139 11 10.3962 11C9.826 11 9.27751 11.1567 8.84987 11.4441C8.37575 11.7605 8.07516 12.2163 8.01318 12.7213ZM9.41696 12.8781C9.45724 12.5675 9.88798 12.3266 10.3962 12.3266C10.4582 12.3266 10.5201 12.3295 10.5852 12.3382C10.9013 12.373 11.1895 12.4978 11.3816 12.6778C11.4684 12.7591 11.6109 12.9245 11.583 13.1248C11.5428 13.4354 11.112 13.6763 10.6038 13.6763C10.5418 13.6763 10.4799 13.6734 10.4148 13.6647C10.0987 13.6299 9.81051 13.5051 9.61838 13.3251C9.53161 13.2438 9.38907 13.0784 9.41696 12.8781Z" fill="black"/>
</svg>
