<svg width="25" height="26" viewBox="0 0 25 26" fill="none" xmlns="http://www.w3.org/2000/svg">
<g clip-path="url(#clip0_650_1454)">
<path d="M12.3043 26C10.6894 25.5238 9.43612 24.4525 8.24909 23.2872C7.78512 22.8299 7.37539 22.3099 6.93552 21.8149C6.13412 22.3099 5.44721 22.1971 4.66389 21.4202C3.74198 20.5118 3.16353 19.3841 2.74174 18.1687C2.22957 16.7026 2.0247 15.1865 2.05483 13.6328C2.05483 13.5012 2.05483 13.3634 2.05483 13.2255C1.7415 13.2694 1.44625 13.3258 1.14497 13.3446C0.367674 13.401 0.0181921 13.094 0.006141 12.2106C-0.0179612 10.5316 0.204984 8.89011 0.825616 7.32385C1.41009 5.83903 2.2838 4.57348 3.49493 3.57734C3.59134 3.50216 3.68173 3.41445 3.7239 3.38312C3.59134 3.07614 3.42865 2.81927 3.3684 2.53107C3.26596 2.02987 3.49493 1.54746 3.94082 1.32192C5.65208 0.476135 7.42962 -0.0751902 9.34574 0.0125207C10.4002 0.0626412 11.4005 0.332039 12.3284 0.870834C12.4067 0.914689 12.5513 0.927219 12.6297 0.883364C14.1602 -9.43907e-06 15.7871 -0.150371 17.4802 0.125292C18.6311 0.313244 19.7037 0.733003 20.7822 1.17782C21.668 1.5412 21.9632 2.59999 21.21 3.333C21.2944 3.40818 21.3788 3.48336 21.4631 3.55228C23.2768 5.04963 24.3072 7.03565 24.747 9.37252C24.8495 9.91758 24.8856 10.4752 24.9579 11.0328C24.97 11.1142 24.9881 11.1957 25.0001 11.2771V12.5489C25.0001 12.5489 24.964 12.6053 24.9519 12.6366C24.7711 13.1942 24.5663 13.3571 24.0059 13.3634C23.8673 13.3634 23.7287 13.3508 23.5901 13.332C23.3672 13.3007 23.1503 13.2569 22.9092 13.2193C22.9092 13.307 22.9092 13.3759 22.9092 13.4448C22.9876 15.1238 22.7586 16.7528 22.2103 18.3316C21.8005 19.5094 21.2281 20.5932 20.3604 21.4891C19.5952 22.2848 18.8962 22.3976 18.0647 21.8713C17.6309 22.3537 17.2211 22.8612 16.7572 23.3123C15.5581 24.4713 14.2927 25.5176 12.6839 26.0125H12.2922L12.3043 26ZM0.946127 12.3422C1.45227 12.3234 1.89214 12.2607 2.28982 12.0352C2.48867 11.9224 2.68148 11.866 2.88635 11.9976C3.10327 12.1417 3.12737 12.361 3.09725 12.599C2.90443 14.3908 3.07314 16.1451 3.66365 17.8429C4.01313 18.8516 4.47107 19.8101 5.21824 20.5682C5.43516 20.7937 5.73041 20.9441 6.00759 21.1007C6.07387 21.1383 6.23053 21.0694 6.29681 21.0005C6.34502 20.9441 6.33297 20.8063 6.31489 20.7123C6.29079 20.6058 6.22451 20.5118 6.18233 20.4178C6.03771 20.092 6.104 19.8101 6.35707 19.6723C6.62219 19.5282 6.89334 19.6347 7.05001 19.973C7.46577 20.8752 8.05025 21.652 8.72511 22.36C9.70125 23.3812 10.7738 24.2583 12.0512 24.8535C12.3525 24.9976 12.6417 25.0038 12.937 24.8535C14.6181 24.0453 16.004 22.8487 17.1488 21.3576C17.4923 20.9128 17.7393 20.3928 18.0286 19.9041C18.1912 19.6284 18.4443 19.5344 18.6914 19.666C18.9324 19.7976 19.0167 20.0732 18.8962 20.3677C18.842 20.4993 18.7637 20.6183 18.7155 20.7561C18.6914 20.8313 18.6853 20.9378 18.7155 21.013C18.7998 21.2323 18.9866 21.2511 19.1373 21.1383C19.4566 20.894 19.8001 20.6622 20.0411 20.3489C21.1618 18.9205 21.6559 17.2289 21.8789 15.4308C21.9994 14.4598 21.9693 13.4887 21.8789 12.5176C21.8548 12.292 21.903 12.0978 22.1078 11.9663C22.3067 11.841 22.4875 11.8911 22.6803 12.0038C23.09 12.2544 23.5419 12.3171 24.024 12.3359C24.0421 11.2771 23.9577 10.2496 23.7347 9.24095C23.3431 7.47421 22.5598 5.933 21.2703 4.69252C20.734 4.17879 20.1315 3.77156 19.4928 3.40818C19.3421 3.32047 19.1674 3.17011 19.1252 3.01348C19.083 2.86939 19.1674 2.64385 19.2698 2.51854C19.4084 2.33686 19.6313 2.34939 19.8302 2.45589C20.029 2.5624 20.2219 2.68144 20.4448 2.55613C20.5292 2.51228 20.5954 2.43083 20.6738 2.36818C20.6075 2.293 20.5593 2.1865 20.4749 2.14891C19.2578 1.55999 17.9924 1.13397 16.6487 1.03373C15.293 0.933485 14.0035 1.14023 12.8526 1.94842C12.5875 2.13011 12.3585 2.09252 12.1115 1.9171C11.3824 1.40336 10.5629 1.1465 9.69522 1.05252C8.3214 0.902159 7.00783 1.17156 5.72439 1.6477C5.31465 1.79806 4.91094 1.98601 4.50723 2.1677C4.44094 2.19903 4.38069 2.28674 4.35659 2.36818C4.34454 2.39951 4.41082 2.50601 4.453 2.51854C4.65184 2.5812 4.85068 2.68144 5.05555 2.53107C5.13388 2.47469 5.23029 2.44336 5.32067 2.41204C5.55567 2.34312 5.78464 2.44963 5.88708 2.68144C5.98348 2.89445 5.92323 3.15132 5.73041 3.28915C5.60388 3.38312 5.46529 3.45204 5.3267 3.52722C4.08544 4.21638 3.09725 5.18746 2.36213 6.43421C1.64509 7.64336 1.25343 8.96529 1.09074 10.3687C1.01843 11.014 1.00638 11.6593 0.964203 12.3296L0.946127 12.3422Z" fill="black"/>
<path d="M12.4968 5.45063C13.4971 4.48581 14.6359 4.21641 15.9073 4.62364C16.8473 4.92437 17.48 5.60726 17.9319 6.49063C18.7212 8.03184 18.9743 9.67955 18.7875 11.4024C18.6369 12.787 18.3657 14.1465 17.727 15.387C17.5041 15.8256 17.3956 16.2516 17.3594 16.7403C17.2148 18.5697 16.4074 20.0106 14.8829 20.9629C12.7559 22.2911 9.86367 21.5832 8.48382 19.4342C7.89331 18.5133 7.60409 17.4983 7.62216 16.3957C7.62216 16.1388 7.56793 15.9258 7.4414 15.7065C6.86897 14.7229 6.57974 13.6328 6.37488 12.5176C6.17001 11.3836 6.06757 10.2371 6.24834 9.08437C6.44116 7.85641 6.81474 6.70364 7.56793 5.71376C8.73689 4.17882 10.9724 4.0034 12.3703 5.32533C12.4125 5.36292 12.4547 5.40051 12.5089 5.44437L12.4968 5.45063ZM7.12204 10.4188C7.19435 11.9475 7.41127 13.52 8.15241 14.9297C8.47177 15.5374 8.58023 16.1263 8.61035 16.7904C8.66458 18.081 9.23098 19.1335 10.2553 19.8728C12.7559 21.6646 15.9254 20.0608 16.3472 16.9783C16.4496 16.2516 16.3592 15.4873 16.8895 14.8858C17.5583 13.3885 17.8656 11.8034 17.8596 10.162C17.8535 8.87762 17.5161 7.67473 16.8473 6.58461C15.9434 5.12485 13.9369 5.06846 12.9729 6.47184C12.6776 6.90413 12.3161 6.92292 12.0389 6.4781C11.1471 5.05593 9.02009 5.11858 8.12831 6.60967C7.44742 7.75617 7.14615 9.00919 7.12204 10.4126V10.4188Z" fill="black"/>
<path d="M20.1796 5.1499C20.3544 5.26267 20.499 5.31906 20.6074 5.4193C21.7824 6.52822 22.4272 7.94412 22.7887 9.52291C22.861 9.8299 22.7043 10.0868 22.4452 10.162C22.1801 10.2371 21.9451 10.0868 21.8487 9.77978C21.674 9.24725 21.5294 8.69593 21.3185 8.17593C21.0051 7.41785 20.5592 6.74123 19.9687 6.18364C19.9085 6.12725 19.8241 6.0646 19.8121 5.99569C19.7819 5.83279 19.7277 5.63231 19.788 5.50075C19.8482 5.35665 20.035 5.2752 20.1796 5.1499Z" fill="black"/>
<path d="M18.1067 4.55471C18.1128 4.28531 18.3417 4.05351 18.6008 4.06604C18.8599 4.07857 19.0769 4.31664 19.0648 4.58604C19.0528 4.85544 18.8238 5.08098 18.5647 5.06845C18.2996 5.05592 18.0947 4.82411 18.1007 4.54845L18.1067 4.55471Z" fill="black"/>
<path d="M12.5089 16.3456C12.9246 15.907 13.3163 15.4872 13.714 15.08C13.8586 14.9297 14.0454 14.8106 14.2382 14.9297C14.3768 15.0111 14.5395 15.174 14.5576 15.3244C14.5756 15.4872 14.4792 15.7003 14.3647 15.8318C13.9731 16.2766 13.5573 16.6901 13.1416 17.1099C13.021 17.2352 12.9668 17.3542 12.9789 17.5297C12.9909 17.6988 12.9789 17.868 12.9789 18.0371C12.9909 18.3566 13.1777 18.5759 13.4428 18.5884C13.6959 18.601 13.8887 18.413 13.949 18.106C13.949 18.081 13.949 18.0559 13.961 18.0309C14.0213 17.7364 14.2442 17.5484 14.4913 17.586C14.7624 17.6236 14.9432 17.8617 14.9191 18.1687C14.8709 18.7513 14.5997 19.1962 14.0936 19.453C13.5995 19.7036 13.1114 19.6598 12.6595 19.3465C12.533 19.2588 12.4546 19.2525 12.3221 19.3465C11.3942 19.9981 10.1469 19.3653 10.0565 18.2063C10.0324 17.8805 10.2011 17.6362 10.4783 17.5923C10.7374 17.5547 10.9603 17.7427 11.0206 18.0559C11.0266 18.0998 11.0326 18.1374 11.0386 18.1812C11.0989 18.4318 11.2977 18.601 11.5267 18.5947C11.7677 18.5884 11.9726 18.3942 11.9907 18.1248C12.0088 17.8742 12.0088 17.6174 11.9907 17.3668C11.9907 17.2978 11.9244 17.2164 11.8702 17.16C11.4544 16.7215 11.0206 16.2954 10.6169 15.8444C10.5024 15.7128 10.3999 15.4998 10.418 15.3369C10.4301 15.1928 10.5928 15.0236 10.7313 14.9422C10.9242 14.8231 11.111 14.9422 11.2556 15.0863C11.599 15.4371 11.9365 15.788 12.2739 16.1451C12.3341 16.2077 12.4004 16.2704 12.4908 16.3581L12.5089 16.3456Z" fill="black"/>
<path d="M15.4256 12.3359C14.6303 12.3359 13.9675 11.653 13.9614 10.8197C13.9614 9.98021 14.6363 9.28479 15.4377 9.29106C16.2331 9.30359 16.8898 9.99274 16.8898 10.8197C16.8898 11.6467 16.221 12.3359 15.4256 12.3296V12.3359ZM15.9137 10.8072C15.9137 10.5378 15.6787 10.306 15.4196 10.3123C15.1605 10.3123 14.9376 10.5566 14.9436 10.826C14.9436 11.0954 15.1786 11.3272 15.4377 11.3209C15.6968 11.3209 15.9197 11.0766 15.9137 10.8135V10.8072Z" fill="black"/>
<path d="M9.57477 12.3359C8.77939 12.3359 8.11056 11.6593 8.10453 10.826C8.09851 9.99274 8.77337 9.28479 9.57477 9.29106C10.3701 9.29106 11.0329 9.98648 11.0329 10.8135C11.0329 11.6405 10.3762 12.3296 9.57477 12.3359ZM9.57477 11.3209C9.83386 11.3209 10.0568 11.0766 10.0508 10.8072C10.0508 10.5378 9.81579 10.306 9.55669 10.3123C9.29759 10.3123 9.07465 10.5566 9.08067 10.826C9.08067 11.0954 9.31567 11.3272 9.57477 11.3209Z" fill="black"/>
</g>
<defs>
<clipPath id="clip0_650_1454">
<rect width="25" height="26" fill="white"/>
</clipPath>
</defs>
</svg>
