<svg width="22" height="26" viewBox="0 0 22 26" fill="none" xmlns="http://www.w3.org/2000/svg">
<path d="M13 25H9" stroke="#4F7302" stroke-linecap="round" stroke-linejoin="round"/>
<path d="M16.2371 7.4307C16.2371 7.4307 15.9383 8.32496 14.9381 8.32496C13.9379 8.32496 13.6391 7.4307 13.6391 7.4307C13.6391 7.4307 13.0979 8.32496 12.3402 8.32496C11.5824 8.32496 11.0412 7.4307 11.0412 7.4307C11.0412 7.4307 10.6601 9.21921 9.30919 9.21921C8.39124 9.21921 8.01021 8.32496 8.01021 8.32496C8.01021 8.32496 7.74175 9.21921 6.71123 9.21921C5.87122 9.21921 5.41224 8.56193 5.41224 7.87783C5.41224 6.50961 6.27823 6.53644 6.27823 6.53644C6.27823 6.53644 4.97925 6.14297 4.97925 4.74793C4.97925 3.35289 5.8972 2.51228 6.71123 2.51228C7.52525 2.51228 8.01021 2.95941 8.01021 2.95941C8.01021 2.95941 7.94093 1.61803 9.30919 1.61803C10.3051 1.61803 10.6082 2.51228 10.6082 2.51228C10.6082 2.51228 11.3659 1.1709 12.7731 1.1709C14.1804 1.1709 14.5051 2.95941 14.5051 2.95941C14.5051 2.95941 16.328 2.41839 17.0771 3.16509C18.2116 4.3008 17.4841 6.08931 17.4841 6.08931C17.4841 6.08931 20.1341 6.08931 20.1341 8.32496C20.1341 9.51879 19.2681 10.1135 19.2681 10.1135C19.2681 10.1135 21 10.6456 21 12.3491C21 14.2494 20.2423 15.0319 19.2681 15.0319C18.2938 15.0319 17.9691 14.1376 17.9691 14.1376C17.9691 14.1376 17.5621 15.0319 16.2371 15.0319C15.1027 15.0319 14.5051 13.5206 14.9381 12.3491C14.9381 12.3491 14.5874 13.2434 13.6391 13.2434C12.6389 13.2434 12.3402 12.3625 12.3402 11.902" stroke="#4F7302" stroke-linejoin="round"/>
<path d="M5.41221 7.87842C4.76272 7.87842 3.46374 8.12881 4.11323 10.1677C4.11323 10.1677 1 10.3913 1 12.8237C1 15.256 2.20372 15.4796 2.81425 15.4796C3.42477 15.4796 3.70621 15.0325 3.70621 15.0325C3.70621 15.0325 3.68023 15.9267 4.97922 15.9267C6.36047 15.9267 6.2782 14.5853 6.2782 14.5853C6.41243 15.1711 8.17472 15.3678 8.44317 14.1382" stroke="#4F7302" stroke-linejoin="round"/>
<path d="M2.00022 15.2866C2.00022 15.2866 1.08228 16.1183 1.08228 17.2674C1.08228 18.4165 2.57178 18.9173 3.24725 18.6088" stroke="#4F7302" stroke-linejoin="round"/>
<path d="M2.38111 18.6089C2.19492 18.9174 2.16462 20.8445 3.6801 20.8445C4.94011 20.8445 5.41207 19.9503 5.41207 19.9503C5.41207 19.9503 5.84507 20.8445 7.57705 20.8445C8.87603 20.8445 9.38696 19.7491 9.39562 19.1454" stroke="#4F7302" stroke-linejoin="round"/>
<path d="M10.175 25.3156V17.7144L9.74197 15.0317V12.796L8.87598 11.4546V9.14746" stroke="#4F7302" stroke-linejoin="round"/>
<path d="M12.3404 25.3158V20.3974L16.2373 15.0319L12.3404 18.6089L11.9074 17.7147L13.2324 13.1852L11.4744 16.3733L10.6084 15.0319L9.74243 12.7962L11.9074 10.5606V8.25342" stroke="#4F7302" stroke-linejoin="round"/>
<path d="M11.907 10.5603L14.072 9.66609L14.5049 8.32471" stroke="#4F7302" stroke-linejoin="round"/>
<path d="M14.3101 17.6834L17.1029 17.2676L18.4495 14.7637" stroke="#4F7302" stroke-linejoin="round"/>
<path d="M8.01025 14.8081V17.7144L10.1752 19.9501" stroke="#4F7302" stroke-linejoin="round"/>
<path d="M4.97925 15.9263L6.27823 17.7148H8.01021" stroke="#4F7302" stroke-linejoin="round"/>
<path d="M12.3403 20.3974C12.3403 20.3974 14.0593 21.6673 14.9643 19.9503C14.9643 19.9503 15.341 20.3974 16.1031 20.3974C16.3455 20.3974 16.627 20.384 16.9431 20.2275C17.9736 19.7267 17.9736 18.6089 17.9736 18.6089C17.9736 18.6089 20.013 19.0337 20.7361 17.4643C21.4375 15.9261 20.3118 14.625 20.3118 14.625" stroke="#4F7302" stroke-linejoin="round"/>
</svg>
