<svg width="26" height="26" viewBox="0 0 26 26" fill="none" xmlns="http://www.w3.org/2000/svg">
<path d="M12.1865 0.000678399C12.7278 0.000678399 13.2698 0.000678399 13.8111 0.000678399C14.2452 0.0576639 14.6827 0.0997246 15.1134 0.174349C18.2601 0.719103 20.8933 2.19462 22.9337 4.64635C25.5425 7.78124 26.4921 11.3991 25.7616 15.4092C25.1653 18.6817 23.4879 21.339 20.8424 23.3478C18.0017 25.5051 14.779 26.3382 11.2444 25.8775C8.63353 25.5376 6.3361 24.4651 4.37375 22.7094C2.13736 20.7081 0.73868 18.2245 0.202815 15.266C0.115991 14.785 0.0664744 14.2973 0 13.8129C0 13.2715 0 12.7295 0 12.1881C0.0122096 12.1481 0.0332372 12.1087 0.0359505 12.068C0.137019 10.5423 0.515516 9.08648 1.13142 7.68897C1.15991 7.62385 1.15652 7.5187 1.12328 7.45628C0.554858 6.41087 0.840427 4.91975 2.00305 4.17147C2.05799 4.1362 2.10819 4.04054 2.1048 3.97677C2.05325 3.05822 2.42496 2.37168 3.22333 1.91851C3.5713 1.7211 3.83652 1.44974 4.02984 1.09833C4.33644 0.542041 4.80379 0.192665 5.42377 0.0488447C5.46243 0.0400255 5.49838 0.01696 5.53501 0C5.75479 0 5.97524 0 6.19501 0C6.85026 0.166886 7.39087 0.495231 7.72324 1.11393C7.77005 1.09697 7.80057 1.08815 7.82974 1.07526C8.79497 0.65669 9.79412 0.349375 10.8333 0.183846C11.283 0.113293 11.7354 0.0617343 12.1865 0.000678399ZM12.584 25.1204C12.584 24.4922 12.5861 23.8844 12.5806 23.2759C12.5806 23.2175 12.5508 23.1361 12.5067 23.1042C12.1614 22.8553 11.804 22.6497 11.3515 22.6416C10.8794 22.6327 10.5152 22.8573 10.1387 23.0907C9.29692 23.6124 8.42869 23.6259 7.56588 23.1483C7.16296 22.9251 6.80617 22.607 6.30693 22.6517V21.7725C6.61488 21.8411 6.90995 21.8736 7.17924 21.9747C7.45735 22.0792 7.71036 22.2508 7.99999 22.4068C8.11259 21.4401 8.45785 20.5908 9.04866 19.8459C9.6449 19.0935 10.4161 18.5841 11.3237 18.217C11.3237 18.4565 11.3237 18.6668 11.3237 18.8771C11.3203 19.8031 11.4343 20.7156 11.6357 21.6185C11.6527 21.6945 11.6846 21.8085 11.7388 21.8288C12.0108 21.932 12.293 22.01 12.5732 22.0968V18.042C9.92504 17.6045 8.3907 16.0665 7.95997 13.433H0.875021C0.868916 13.4805 0.859419 13.5137 0.860776 13.5456C0.912328 14.9099 1.19925 16.2246 1.70934 17.4898C1.73444 17.5522 1.8389 17.6126 1.91216 17.6207C2.32389 17.6669 2.70239 17.7944 3.04629 18.0251C3.14872 18.0936 3.25657 18.1546 3.37188 18.2252C3.69476 15.9085 5.17822 14.6046 6.70646 14.0395C6.70646 14.146 6.70781 14.2457 6.70646 14.3454C6.69153 15.3644 6.79057 16.3718 7.00695 17.3677C7.04493 17.5441 7.09513 17.658 7.31219 17.694C7.5306 17.73 7.74766 17.8331 7.94234 17.9464C8.34118 18.1797 8.70951 18.4762 9.20942 18.4538V19.2835C8.63286 19.2991 8.15329 19.0915 7.70493 18.7835C7.04629 18.331 6.3829 18.3276 5.72087 18.7788C4.69527 19.4768 3.67441 19.4748 2.65219 18.7699C2.51992 18.6784 2.37002 18.6119 2.17331 18.5027C4.42869 22.9679 8.9754 25.1231 12.5833 25.1198L12.584 25.1204ZM13.4278 0.875135V7.98204C13.6198 8.00918 13.8009 8.03563 13.9915 8.06277C14.0376 7.97254 14.0804 7.89181 14.1204 7.80905C14.4677 7.09537 14.8129 6.38034 15.1623 5.66734C15.4892 5.00048 16.021 4.62872 16.7685 4.62261C17.518 4.61583 18.0512 4.98488 18.3856 5.64767C18.6712 6.21346 18.9534 6.7806 19.2389 7.34638C19.2701 7.40879 19.3095 7.46646 19.3569 7.54719C19.6981 7.05196 20.139 6.78195 20.7 6.71751C21.4923 6.6266 22.2201 7.04992 22.5504 7.81176C23.2084 9.3307 23.8596 10.8523 24.5067 12.376C24.5718 12.5293 24.6451 12.6135 24.8207 12.5877C24.9177 12.5734 25.0181 12.585 25.1165 12.585C25.0737 6.49974 19.8304 0.979608 13.4285 0.875135H13.4278ZM8.18246 5.39124C7.58758 5.75011 7.01373 6.08999 6.44802 6.44411C6.37341 6.49092 6.30083 6.60828 6.30015 6.69308C6.29065 7.75885 6.29404 8.82529 6.29472 9.89106C6.29472 9.9209 6.30422 9.95076 6.30964 9.98196C7.05375 9.79879 7.56859 9.10954 7.54756 8.34634C7.54281 8.18217 7.54756 8.018 7.54756 7.83822C7.73613 7.87282 7.90096 7.9047 8.06647 7.9332C8.95099 8.08516 9.76835 7.58925 10.0003 6.7616C10.2377 5.91496 9.82126 5.0751 8.99304 4.73387C8.86416 4.68027 8.73257 4.63279 8.59691 4.57987C8.65253 4.41231 8.70001 4.2773 8.74139 4.14095C8.90893 3.59144 8.72239 3.01277 8.22791 2.72649C7.66966 2.40357 7.2525 1.97075 6.91741 1.41989C6.4392 0.633625 5.2976 0.638373 4.8194 1.42532C4.48974 1.96804 4.08139 2.3995 3.52925 2.71699C3.02255 3.00802 2.82788 3.58805 3.00017 4.14705C3.04426 4.28952 3.09581 4.42927 3.14668 4.57648C2.96761 4.64839 2.80888 4.70537 2.65626 4.77525C1.98948 5.07714 1.59606 5.77589 1.68696 6.48753C1.78192 7.23105 2.3144 7.82872 3.04833 7.92438C3.42275 7.97322 3.8121 7.90335 4.13498 7.88978C4.21638 8.30157 4.24894 8.75406 4.40291 9.16042C4.56978 9.6007 4.95845 9.85781 5.44819 10.0023C5.44819 9.33952 5.43598 8.71403 5.45429 8.08991C5.46108 7.85315 5.37765 7.729 5.17822 7.61571C4.63625 7.30771 4.10649 6.97801 3.55977 6.64899C3.70968 6.40002 3.84738 6.17207 3.9905 5.93463C4.47685 6.22431 4.94285 6.50178 5.44683 6.80163C5.44683 6.1619 5.45565 5.57915 5.43937 4.99709C5.43598 4.8709 5.36951 4.72098 5.28268 4.62804C4.97269 4.2963 4.641 3.98492 4.32491 3.67285C4.53383 3.45712 4.71561 3.26988 4.91504 3.06365C5.3322 3.48222 5.74868 3.88926 6.15024 4.31055C6.22689 4.3906 6.27776 4.52424 6.28523 4.63686C6.30422 4.92585 6.29133 5.21689 6.29133 5.54727C6.80413 5.24131 7.27217 4.96249 7.75105 4.67688C7.89689 4.91975 8.0312 5.14294 8.18042 5.39259L8.18246 5.39124ZM8.3439 1.79911C8.41037 1.84321 8.46938 1.88663 8.53247 1.92326C9.30913 2.37236 9.67949 3.04805 9.63336 3.9415C9.62522 4.09414 9.69509 4.14705 9.79548 4.21693C10.6942 4.8397 11.0911 5.91157 10.8136 6.95834C10.5443 7.9739 9.65032 8.71064 8.5691 8.79205C8.40698 8.80426 8.34661 8.8565 8.30116 9.01524C8.03187 9.96229 7.41732 10.5695 6.46294 10.8272C6.408 10.8422 6.35509 10.8646 6.30897 10.8808V12.5734H7.95862C8.39748 9.9243 9.93589 8.39044 12.5671 7.96033V0.879205C11.6161 0.787621 9.08665 1.33848 8.3439 1.79911ZM18.0403 13.4235C17.5954 16.0787 16.061 17.6051 13.436 18.0393V25.151C13.7188 25.132 13.9779 25.115 14.2696 25.096V18.4375H18.4528V14.281H24.3283V17.291C24.8343 16.0489 25.107 14.7674 25.1375 13.4235H18.0397H18.0403ZM18.0349 12.5687H23.6513C23.6466 12.528 23.6493 12.5022 23.6405 12.4805C23.0164 11.0219 22.3944 9.56203 21.7636 8.10619C21.6225 7.78056 21.362 7.59196 21.0005 7.55804C20.5915 7.52005 20.2767 7.67066 20.0536 8.01732C19.3373 9.13328 18.6189 10.2486 17.904 11.3652C17.8653 11.4263 17.8179 11.5077 17.8287 11.5694C17.887 11.9005 17.9623 12.2281 18.0342 12.5673L18.0349 12.5687ZM20.1275 20.1322H21.8084V21.3438C21.8938 21.2637 21.9481 21.2257 21.9861 21.1749C22.4446 20.5697 22.9072 19.9666 23.3522 19.3513C23.4336 19.2387 23.4743 19.0718 23.475 18.9294C23.4845 17.7456 23.4804 16.5618 23.4797 15.3779C23.4797 15.2891 23.4695 15.1995 23.4641 15.1059H19.3095V18.4545H20.1275V20.1315V20.1322ZM5.44819 12.5694C5.44819 12.0504 5.44209 11.5606 5.45158 11.0708C5.45497 10.9141 5.40071 10.8544 5.2508 10.8157C4.50466 10.6224 3.95455 10.1753 3.61404 9.48469C3.51026 9.27507 3.44853 9.04509 3.35967 8.80494C2.79328 8.80833 2.27098 8.62313 1.79684 8.27172C1.21621 9.66379 0.900796 11.0776 0.857384 12.5701H5.44819V12.5694ZM19.2803 19.3079H15.106V24.9943C15.595 24.8701 16.0576 24.7439 16.5243 24.6374C16.7149 24.594 16.7753 24.5106 16.7739 24.3118C16.7638 23.0255 16.7692 21.74 16.7692 20.4537V20.124H19.2803V19.3086V19.3079ZM17.4109 10.5776C17.8762 9.85442 18.3212 9.16856 18.756 8.47592C18.7899 8.42164 18.7756 8.31174 18.7438 8.24662C18.372 7.48817 17.9956 6.73243 17.615 5.97805C17.4441 5.63885 17.1579 5.45297 16.7807 5.45433C16.3934 5.45568 16.1058 5.64767 15.9328 5.99908C15.7985 6.2718 15.6663 6.54587 15.534 6.81927C15.2952 7.31043 15.0571 7.80227 14.8123 8.30632C15.9349 8.76695 16.7889 9.50437 17.4109 10.5776ZM20.9679 20.9897H17.6361V24.2358C18.8435 23.7338 19.9152 23.069 20.8845 22.2393C20.9286 22.2013 20.9632 22.1267 20.9639 22.0683C20.9713 21.7142 20.9673 21.3601 20.9673 20.9897H20.9679ZM11.458 11.3333C11.4112 11.7499 11.3664 12.1494 11.3203 12.5633H14.68C14.6312 12.1399 14.585 11.7397 14.5389 11.3333H11.458ZM11.4587 14.6616H14.5416C14.5864 14.2464 14.6305 13.8421 14.6746 13.433H11.319C11.3664 13.8549 11.4119 14.2559 11.458 14.6616H11.4587ZM10.4765 19.6444C9.56214 20.2183 8.68305 21.8641 8.87569 22.6409C9.63811 22.6558 10.0892 21.9292 10.796 21.8614C10.6868 21.1043 10.583 20.3811 10.4772 19.6437L10.4765 19.6444ZM5.8606 15.4268C4.86891 16.1988 4.33101 17.1879 4.21299 18.4355C5.02832 18.4796 5.47668 17.7259 6.18416 17.6655C6.07427 16.9043 5.97049 16.1866 5.8606 15.4261V15.4268ZM14.2974 10.4657C14.1028 9.88495 13.8884 9.34834 13.4136 8.96572C13.1599 8.76152 12.8933 8.74592 12.641 8.92773C12.1201 9.30288 11.9064 9.86595 11.7002 10.4657H14.2974ZM11.6981 15.5313C11.8935 16.1011 12.1017 16.6153 12.5386 16.9946C12.8289 17.2469 13.1267 17.2598 13.4136 17.0305C13.8891 16.6499 14.1021 16.112 14.2988 15.5313H11.6981ZM15.3936 14.6738C15.8541 14.6738 16.2923 14.6758 16.7298 14.6704C16.7767 14.6704 16.8526 14.6317 16.8642 14.5951C16.9835 14.2165 17.0921 13.8339 17.2108 13.4289H15.5184C15.477 13.8441 15.437 14.2443 15.3936 14.6731V14.6738ZM8.7909 13.4242C8.89875 13.8122 8.99847 14.1575 9.09004 14.5055C9.12735 14.6466 9.20806 14.6812 9.34712 14.6772C9.68424 14.667 10.022 14.6751 10.3592 14.6731C10.4433 14.6731 10.5274 14.6629 10.6054 14.6575C10.5599 14.2206 10.5192 13.8224 10.4779 13.4242H8.7909ZM15.3936 11.3232C15.437 11.756 15.4784 12.163 15.5184 12.5646H17.2114C17.0941 12.1623 16.9896 11.7926 16.8757 11.4263C16.8628 11.3842 16.7984 11.3286 16.757 11.3279C16.3032 11.3211 15.8494 11.3232 15.3936 11.3232ZM10.6033 11.3232C10.1475 11.3232 9.69373 11.3218 9.23995 11.3259C9.20603 11.3259 9.1538 11.353 9.14159 11.3808C8.97879 11.758 8.8628 12.1474 8.84178 12.5653H10.4819C10.5226 12.1488 10.562 11.7485 10.6033 11.3232ZM11.2871 16.8182C11.1304 16.4064 10.9873 16.0231 10.8374 15.6418C10.8191 15.5944 10.7689 15.5258 10.7322 15.5245C10.3938 15.5157 10.0553 15.5191 9.66321 15.5191C10.1272 16.1147 10.6461 16.5292 11.2871 16.8175V16.8182ZM14.7105 16.8223C15.359 16.521 15.8833 16.1113 16.3364 15.5157C15.9566 15.5157 15.6378 15.5096 15.3203 15.5211C15.2654 15.5231 15.186 15.5869 15.1643 15.6405C15.0103 16.0204 14.8692 16.405 14.7105 16.8223ZM14.7105 9.17399C14.8692 9.5912 15.0124 9.97586 15.163 10.3571C15.1813 10.4039 15.2335 10.4697 15.2715 10.4711C15.6093 10.4799 15.9471 10.4765 16.3371 10.4765C15.8745 9.88088 15.3563 9.46841 14.7112 9.17467L14.7105 9.17399ZM11.2878 9.17399C10.6407 9.47248 10.115 9.88224 9.66321 10.4806C10.039 10.4806 10.3503 10.486 10.661 10.4758C10.7187 10.4738 10.8062 10.4216 10.8265 10.3714C10.9832 9.98603 11.1277 9.59527 11.2871 9.17467L11.2878 9.17399Z" fill="#4F7302"/>
<path d="M20.1348 16.7491V15.9601H22.6262V16.7491H20.1348Z" fill="#4F7302"/>
<path d="M22.6351 17.635V18.4287H20.9834V17.635H22.6351Z" fill="#4F7302"/>
<path d="M20.1108 21.8235V22.6315H18.4673V21.8235H20.1108Z" fill="#4F7302"/>
</svg>
