<svg width="24" height="29" viewBox="0 0 24 29" fill="none" xmlns="http://www.w3.org/2000/svg">
<path d="M0.338266 28.8019C0.0864458 28.6681 0 28.4655 0 28.1793C0.00563777 20.8279 0.00563777 13.4783 0.00563777 6.12683C0.00563777 5.64739 0.142824 5.51545 0.63331 5.51359C1.34179 5.51359 2.05027 5.51359 2.79258 5.51359C2.79258 4.87619 2.79258 4.27038 2.79258 3.66272C2.79258 3.54007 2.79258 3.41928 2.79258 3.29663C2.79821 2.91196 2.95419 2.75772 3.35072 2.75587C4.07987 2.75401 4.80714 2.75587 5.57952 2.75587C5.57952 2.63508 5.57952 2.53473 5.57952 2.43624C5.57952 1.836 5.57952 1.23577 5.57952 0.63554C5.57952 0.13194 5.71106 0 6.21283 0C7.68241 0 9.15199 0 10.6216 0C14.8593 0 19.0989 0 23.3366 0C23.876 0 24 0.124506 24 0.665273C24 7.97956 24 15.292 24 22.6063C24 23.1619 23.8835 23.2771 23.316 23.2771C22.6263 23.2771 21.9366 23.2771 21.2131 23.2771C21.2131 23.8383 21.2131 24.3698 21.2131 24.9013C21.2131 25.1076 21.2168 25.3138 21.2131 25.5201C21.2055 25.8695 21.042 26.0311 20.685 26.033C20.0122 26.0367 19.3394 26.033 18.6648 26.0348C18.599 26.0348 18.5351 26.0423 18.4261 26.0497C18.4261 26.3154 18.4261 26.5738 18.4261 26.8321C18.4261 27.2818 18.413 27.7333 18.4318 28.1812C18.443 28.4674 18.3472 28.6699 18.0916 28.8H0.338266V28.8019ZM6.48532 0.897561V22.3777H23.0923V0.897561H6.48532ZM0.91144 27.8931H17.5203V26.0367H17.1388C12.5873 26.0367 8.03571 26.0367 3.48602 26.0367C2.90345 26.0367 2.79258 25.9252 2.79258 25.3473C2.79258 19.1591 2.79258 12.971 2.79258 6.78281V6.41301H0.91144V27.895V27.8931ZM20.311 23.279H19.9107C15.3592 23.279 10.8076 23.279 6.25605 23.279C5.69039 23.279 5.57952 23.1675 5.57952 22.6044C5.57952 16.407 5.57952 10.2077 5.57952 4.01022C5.57952 3.89315 5.57952 3.77422 5.57952 3.659H3.70026V25.1317H20.311V23.279Z" fill="#733729"/>
<path d="M10.0203 19.1387C10.0203 17.9494 10.0203 16.8065 10.0203 15.6637C10.0203 15.5615 10.0128 15.4555 10.0241 15.3552C10.0523 15.1099 10.1913 14.9612 10.4469 14.9445C10.6875 14.9278 10.8735 15.095 10.9055 15.3496C10.9167 15.4332 10.9111 15.5187 10.9111 15.6023C10.9111 16.6709 10.9111 17.7394 10.9111 18.8079V19.122H12.9764C12.9764 18.9956 12.9764 18.8841 12.9764 18.7745C12.9764 16.8344 12.9764 14.8925 12.9764 12.9524C12.9764 12.6253 13.1079 12.4488 13.3654 12.4284C13.606 12.4098 13.7732 12.5101 13.8333 12.7443C13.8615 12.8502 13.8615 12.9673 13.8615 13.0788C13.8615 14.9724 13.8615 16.866 13.8615 18.7596V19.1164H15.9287C15.9287 19.0068 15.9287 18.899 15.9287 18.7912C15.9287 17.3287 15.9287 15.8662 15.9287 14.4037C15.9287 14.3015 15.9212 14.1956 15.94 14.0953C15.9813 13.8704 16.1429 13.7515 16.3609 13.7478C16.5658 13.744 16.7293 13.8481 16.7781 14.06C16.8044 14.177 16.8063 14.3015 16.8063 14.4223C16.8063 15.8662 16.8063 17.3101 16.8063 18.754V19.1387C17.4659 19.1387 18.0917 19.1424 18.7157 19.1313C18.7702 19.1313 18.8472 19.0309 18.8716 18.9622C18.8998 18.8878 18.8791 18.7949 18.8791 18.7113C18.8791 16.3866 18.8791 14.0618 18.8791 11.7371C18.8791 11.3598 19.0314 11.1796 19.3302 11.1907C19.5594 11.2 19.7023 11.3208 19.738 11.5438C19.7549 11.6535 19.7511 11.7687 19.7511 11.8802C19.7511 14.1677 19.7511 16.4553 19.7511 18.7429C19.7511 18.8618 19.7511 18.9826 19.7511 19.1406C20.1044 19.1406 20.422 19.1387 20.7415 19.1406C21.0948 19.1443 21.2827 19.2985 21.2865 19.5773C21.2884 19.8579 21.0986 20.0177 20.7509 20.0177C16.7781 20.0177 12.8054 20.0177 8.83451 20.0177C8.48309 20.0177 8.29141 19.8616 8.28765 19.5866C8.28389 19.3097 8.47934 19.1443 8.82324 19.1406C9.21037 19.1368 9.59561 19.1406 10.0203 19.1406V19.1387Z" fill="#733729"/>
<path d="M14.0118 5.03792C14.0155 6.84605 12.5347 8.31039 10.7062 8.30667C8.91522 8.3011 7.43437 6.8349 7.42873 5.06207C7.42309 3.25766 8.88139 1.79703 10.6968 1.79146C12.5422 1.78588 14.008 3.2205 14.0136 5.03792H14.0118ZM13.0909 5.48391C12.6531 5.48391 12.2509 5.52293 11.8619 5.47462C11.1572 5.38728 10.6009 5.59727 10.1292 6.11945C9.86988 6.40563 9.54289 6.6342 9.2253 6.90737C9.95633 7.43327 10.7099 7.57079 11.5142 7.28832C12.3505 6.99471 12.8654 6.3982 13.0909 5.48391ZM8.64273 6.23838C8.89643 6.02282 9.1257 5.83141 9.35121 5.63443C9.65565 5.36869 10.0766 5.15127 10.2269 4.81492C10.3829 4.46928 10.2777 4.00656 10.2833 3.59587C10.2871 3.30969 10.2833 3.02351 10.2833 2.70017C9.43765 2.88972 8.8626 3.33385 8.52809 4.05859C8.19359 4.78333 8.23681 5.50249 8.64085 6.23838H8.64273ZM11.1591 2.74849C11.1591 3.31527 11.1553 3.88391 11.1666 4.45069C11.1666 4.50458 11.2605 4.59936 11.3113 4.60122C11.8938 4.61237 12.4745 4.60865 13.0609 4.60865C12.965 3.69065 11.9972 2.74477 11.1609 2.75034L11.1591 2.74849Z" fill="#733729"/>
<path d="M19.2849 8.84743C19.0688 8.82884 18.9091 8.82513 18.7531 8.80097C18.4731 8.75637 18.3077 8.56682 18.3284 8.3271C18.349 8.08366 18.5389 7.91828 18.8245 7.935C19.3544 7.96845 19.8825 8.00933 20.4106 8.06694C20.7357 8.10225 20.8673 8.28622 20.8391 8.61328C20.7958 9.11688 20.7526 9.62234 20.7038 10.1259C20.6774 10.3973 20.4858 10.5738 20.2415 10.5608C19.9878 10.5478 19.8074 10.3322 19.8224 10.0535C19.8299 9.90852 19.8487 9.76357 19.8675 9.55916C19.7472 9.65207 19.6739 9.70596 19.6044 9.76357C18.7963 10.4456 17.9826 11.1201 17.1858 11.8151C16.9227 12.0456 16.6821 12.0809 16.3627 11.9359C15.3911 11.4937 14.4064 11.0811 13.4329 10.6407C13.2149 10.5422 13.0721 10.5515 12.8823 10.7113C11.8675 11.5717 10.8395 12.4154 9.81346 13.2665C9.7552 13.3148 9.69882 13.3668 9.63493 13.4058C9.42257 13.5415 9.21961 13.5248 9.04672 13.3408C8.88135 13.1661 8.8945 12.9153 9.08431 12.7369C9.2478 12.5808 9.43009 12.4432 9.60298 12.2983C10.6197 11.4546 11.6401 10.6147 12.6511 9.76357C12.8823 9.56845 13.0928 9.535 13.3747 9.66136C14.3913 10.1204 15.4136 10.5645 16.4397 11.0012C16.5374 11.0421 16.7122 11.0421 16.7855 10.9826C17.5879 10.3248 18.3772 9.65022 19.1703 8.97937C19.1985 8.95707 19.2191 8.92548 19.2849 8.84743Z" fill="#733729"/>
<path d="M17.9546 6.67876C17.0357 6.67876 16.1167 6.67876 15.1996 6.67876C14.961 6.67876 14.7637 6.61 14.6885 6.36657C14.5964 6.06738 14.7956 5.81093 15.1339 5.79978C15.4928 5.78863 15.8536 5.79607 16.2126 5.79607C17.6615 5.79607 19.1104 5.79607 20.5593 5.79607C20.6251 5.79607 20.6927 5.79607 20.7585 5.79607C21.1024 5.8035 21.2922 5.96517 21.2866 6.24578C21.2809 6.51337 21.0949 6.67319 20.766 6.67505C20.1308 6.67876 19.4975 6.67505 18.8623 6.67505C18.5598 6.67505 18.2572 6.67505 17.9528 6.67505L17.9546 6.67876Z" fill="#733729"/>
<path d="M17.9828 3.41928C18.9205 3.41928 19.8601 3.41742 20.7979 3.41928C21.1099 3.41928 21.2846 3.58096 21.2865 3.84298C21.2865 4.10686 21.1155 4.26295 20.8035 4.27782C20.719 4.28154 20.6325 4.27968 20.548 4.27968C19.116 4.27968 17.684 4.27968 16.2539 4.27968C15.9024 4.27968 15.5529 4.28339 15.2015 4.27968C14.8425 4.2741 14.6659 4.12172 14.6715 3.8374C14.6772 3.56423 14.85 3.42114 15.1958 3.42114C16.1242 3.41928 17.0544 3.42114 17.9828 3.42114V3.41928Z" fill="#733729"/>
</svg>
