<svg width="28" height="27" viewBox="0 0 28 27" fill="none" xmlns="http://www.w3.org/2000/svg">
<path d="M10.6488 6.8125C10.6488 8.6593 12.152 10.1625 13.9988 10.1625C15.8456 10.1625 17.3488 8.6593 17.3488 6.8125C17.3488 4.96571 15.8456 3.4625 13.9988 3.4625C12.152 3.4625 10.6488 4.96571 10.6488 6.8125ZM11.9321 6.8125C11.9321 5.67336 12.8596 4.74583 13.9988 4.74583C15.1379 4.74583 16.0655 5.67336 16.0655 6.8125C16.0655 7.95165 15.1379 8.87917 13.9988 8.87917C12.8596 8.87917 11.9321 7.95165 11.9321 6.8125Z" fill="#741E76" stroke="#741E76" stroke-width="0.2"/>
<path d="M14.0989 17.7459H13.9989C13.7903 17.7459 13.5961 17.6447 13.4759 17.4748L14.0989 17.7459ZM14.0989 17.7459V17.7367M14.0989 17.7459V17.7367M14.0989 17.7367C14.2674 17.7102 14.421 17.6174 14.5219 17.4749L14.0989 17.7367ZM8.67809 10.7076L13.4758 17.4748H14.522L19.3861 10.6282L19.3862 10.6281C20.1795 9.50754 20.5989 8.18869 20.5989 6.81251C20.5989 3.1728 17.6386 0.2125 13.9989 0.2125C10.3592 0.2125 7.39893 3.17279 7.39756 6.81247V6.81251C7.39756 8.18869 7.81698 9.50754 8.61032 10.6281L8.6103 10.6281L8.61143 10.6296C8.63073 10.6558 8.65259 10.6826 8.67809 10.7076ZM9.60185 9.80727C8.99837 8.92205 8.68089 7.88859 8.68089 6.81251C8.68089 3.88044 11.0655 1.49583 13.9976 1.49583C16.9296 1.49583 19.3142 3.88044 19.3142 6.81251C19.3142 7.89505 18.994 8.93207 18.3852 9.81995C18.3488 9.85992 18.3148 9.9056 18.2882 9.9582L13.999 15.9957L9.66862 9.88686L9.66811 9.88615C9.64862 9.85917 9.627 9.83269 9.60185 9.80727Z" fill="#741E76" stroke="#741E76" stroke-width="0.2"/>
<path d="M13.9989 24.146C13.6997 24.146 13.4573 23.9036 13.4573 23.6043V23.0627C13.4573 22.7634 13.6997 22.521 13.9989 22.521C14.2982 22.521 14.5406 22.7634 14.5406 23.0627V23.6043C14.5406 23.9036 14.2982 24.146 13.9989 24.146Z" fill="#741E76"/>
<path d="M13.9989 20.8955C13.6997 20.8955 13.4573 20.6531 13.4573 20.3538V19.8122C13.4573 19.5129 13.6997 19.2705 13.9989 19.2705C14.2982 19.2705 14.5406 19.5129 14.5406 19.8122V20.3538C14.5406 20.6531 14.2982 20.8955 13.9989 20.8955Z" fill="#741E76"/>
<path d="M8.04045 24.146C7.74118 24.146 7.49878 23.9036 7.49878 23.6043V23.0627C7.49878 22.7634 7.74118 22.521 8.04045 22.521C8.33972 22.521 8.58211 22.7634 8.58211 23.0627V23.6043C8.58211 23.9036 8.33972 24.146 8.04045 24.146Z" fill="#741E76"/>
<path d="M8.04045 20.8955C7.74118 20.8955 7.49878 20.6531 7.49878 20.3538V19.8122C7.49878 19.5129 7.74118 19.2705 8.04045 19.2705C8.33972 19.2705 8.58211 19.5129 8.58211 19.8122V20.3538C8.58211 20.6531 8.33972 20.8955 8.04045 20.8955Z" fill="#741E76"/>
<path d="M8.04045 17.6455C7.74118 17.6455 7.49878 17.4031 7.49878 17.1038V16.5622C7.49878 16.2629 7.74118 16.0205 8.04045 16.0205C8.33972 16.0205 8.58211 16.2629 8.58211 16.5622V17.1038C8.58211 17.4031 8.33972 17.6455 8.04045 17.6455Z" fill="#741E76"/>
<path d="M8.04045 14.3955C7.74118 14.3955 7.49878 14.1531 7.49878 13.8538V13.3122C7.49878 13.0129 7.74118 12.7705 8.04045 12.7705C8.33972 12.7705 8.58211 13.0129 8.58211 13.3122V13.8538C8.58211 14.1531 8.33972 14.3955 8.04045 14.3955Z" fill="#741E76"/>
<path d="M19.9567 24.146C19.6574 24.146 19.415 23.9036 19.415 23.6043V23.0627C19.415 22.7634 19.6574 22.521 19.9567 22.521C20.256 22.521 20.4984 22.7634 20.4984 23.0627V23.6043C20.4984 23.9036 20.256 24.146 19.9567 24.146Z" fill="#741E76"/>
<path d="M19.9567 20.8955C19.6574 20.8955 19.415 20.6531 19.415 20.3538V19.8122C19.415 19.5129 19.6574 19.2705 19.9567 19.2705C20.256 19.2705 20.4984 19.5129 20.4984 19.8122V20.3538C20.4984 20.6531 20.256 20.8955 19.9567 20.8955Z" fill="#741E76"/>
<path d="M19.9567 17.6455C19.6574 17.6455 19.415 17.4031 19.415 17.1038V16.5622C19.415 16.2629 19.6574 16.0205 19.9567 16.0205C20.256 16.0205 20.4984 16.2629 20.4984 16.5622V17.1038C20.4984 17.4031 20.256 17.6455 19.9567 17.6455Z" fill="#741E76"/>
<path d="M19.9567 14.3955C19.6574 14.3955 19.415 14.1531 19.415 13.8538V13.3122C19.415 13.0129 19.6574 12.7705 19.9567 12.7705C20.256 12.7705 20.4984 13.0129 20.4984 13.3122V13.8538C20.4984 14.1531 20.256 14.3955 19.9567 14.3955Z" fill="#741E76"/>
<path d="M26.4732 26.4127H26.457C26.3893 26.4127 26.3203 26.4014 26.2544 26.379C26.2543 26.3789 26.2542 26.3789 26.2541 26.3789L19.9666 24.283L14.2183 26.3728C14.0771 26.4241 13.9216 26.4241 13.7803 26.3728L8.03212 24.283L1.74415 26.379C1.74408 26.379 1.74401 26.3791 1.74395 26.3791C1.5479 26.4449 1.33294 26.411 1.1663 26.2909C0.99935 26.1705 0.9 25.9764 0.9 25.7696V9.51962C0.9 9.24361 1.07653 8.99833 1.33925 8.91023L1.33949 8.91015L5.67283 7.46931L5.67303 7.46924C6.00811 7.35862 6.37206 7.53959 6.48441 7.87505L6.48446 7.87518C6.5968 8.21222 6.41376 8.57463 6.07874 8.68684L6.07854 8.68691L2.18469 9.98175V24.878L7.84045 22.9923C7.97905 22.9455 8.12699 22.949 8.26281 22.9985M26.4732 26.4127L8.22855 23.0924M26.4732 26.4127L26.4779 26.4111M26.4732 26.4127L26.4779 26.4111M8.26281 22.9985L8.22855 23.0924M8.26281 22.9985L8.26272 22.9985L8.22855 23.0924M8.26281 22.9985L14.0014 25.085M8.22855 23.0924L14.0014 25.1914M14.0014 25.085L13.9672 25.0974L14.0014 25.1914M14.0014 25.085L14.0355 25.0974L14.0014 25.1914M14.0014 25.085V25.1914M26.4779 26.4111C26.6047 26.4078 26.7301 26.3679 26.8366 26.2907L26.8369 26.2905C27.0031 26.1691 27.1027 25.9768 27.1027 25.7696V9.51962C27.1027 9.24222 26.9248 8.99679 26.6631 8.91011L22.33 7.46933L26.4779 26.4111ZM25.818 24.9834L25.918 25.0167V24.9113L25.818 24.878V24.9834ZM19.7399 22.9985L19.7742 23.0924L19.74 22.9985L19.7399 22.9985ZM25.818 9.98175L25.8865 10.0045L25.918 9.90962H25.818V9.98175ZM2.08469 25.0167L2.18469 24.9834L2.08469 25.0167Z" fill="#741E76" stroke="#741E76" stroke-width="0.2"/>
</svg>
