<svg width="28" height="29" viewBox="0 0 28 29" fill="none" xmlns="http://www.w3.org/2000/svg">
<g clip-path="url(#clip0_650_1512)">
<path d="M11.8216 -3.04999e-05C12.4878 0.244879 12.7568 0.727831 12.695 1.41297C12.6849 1.52512 12.6934 1.63804 12.6934 1.78682C12.807 1.79292 12.9075 1.80207 13.0072 1.80207C13.6193 1.8036 14.2315 1.80207 14.8429 1.80284C15.7062 1.80436 16.1035 2.16982 16.1653 3.0167C16.1684 3.05409 16.1753 3.09071 16.1862 3.16472C16.2882 3.16472 16.3894 3.16472 16.4915 3.16472C17.5527 3.16472 18.6146 3.16166 19.6758 3.16548C20.863 3.17006 21.6467 3.84985 21.7781 5.00726C21.8021 5.22012 21.8732 5.37348 22.0255 5.51844C22.1607 5.64738 22.2658 5.80607 22.3764 5.94264C22.6252 5.684 22.8416 5.40476 23.1106 5.18884C24.6742 3.9353 26.9736 4.47166 27.8222 6.27529C27.9614 6.57132 27.8972 6.81318 27.6491 6.92686C27.4172 7.03291 27.1985 6.93983 27.0516 6.64685C26.6289 5.80607 25.9534 5.36203 24.9965 5.36737C24.2452 5.37195 23.6571 5.69468 23.225 6.29971C23.1593 6.39202 23.0982 6.49045 23.021 6.57208C22.6059 7.00773 22.0038 6.94288 21.639 6.40194C21.2433 5.81599 20.7123 5.44901 20.0012 5.38568C18.6254 5.26285 17.565 6.22875 17.5635 7.59521C17.5619 8.89834 18.1169 9.98784 18.9454 10.956C19.866 12.031 21.006 12.8321 22.2728 13.4631C22.3431 13.4982 22.4645 13.502 22.5325 13.4662C24.0976 12.6475 25.5128 11.6457 26.4526 10.1229C26.7224 9.68647 26.8785 9.18216 27.0826 8.70684C27.1197 8.62062 27.1282 8.52373 27.1599 8.43522C27.2526 8.17811 27.4621 8.05985 27.6916 8.13004C27.9258 8.20176 28.0441 8.40699 27.9853 8.66793C27.8114 9.44004 27.4984 10.1549 27.0455 10.808C25.9673 12.3599 24.4848 13.4318 22.8138 14.2802C22.4753 14.4519 22.1491 14.3642 21.7982 14.2055V14.5686C21.7982 18.665 21.7982 22.762 21.7982 26.8583C21.7982 27.7228 21.4697 28.4102 20.6566 28.7894C20.3807 28.9176 20.0507 28.987 19.7446 28.9885C17.1724 29.0038 14.6002 28.9977 12.0279 28.9969C11.6724 28.9969 11.4699 28.8329 11.4769 28.5628C11.4838 28.2958 11.6824 28.1493 12.0488 28.1493C14.5445 28.1485 17.0402 28.1493 19.5359 28.1493C20.5268 28.1493 20.9372 27.7403 20.9372 26.7515C20.9372 22.5225 20.9341 18.2942 20.9442 14.0651C20.9442 13.795 20.8738 13.6249 20.6327 13.5013C20.4503 13.4082 20.2872 13.2792 20.0661 13.1343V13.5249C20.0661 16.2342 20.063 18.9427 20.07 21.6519C20.07 21.9457 19.9827 22.1677 19.7678 22.3783C18.1988 23.9133 16.6375 25.456 15.0809 27.0026C14.8776 27.2047 14.6635 27.2978 14.3729 27.2971C10.4814 27.2909 6.58901 27.2932 2.69744 27.2925C2.00182 27.2925 1.7259 27.0186 1.7259 26.3289C1.7259 19.9101 1.7259 13.4913 1.7259 7.07258C1.7259 6.38439 1.99873 6.11431 2.69666 6.11431C3.98741 6.11431 5.27816 6.11431 6.56969 6.11431C6.67248 6.11431 6.77528 6.11431 6.89353 6.11431V5.39408C5.87407 5.15146 5.70712 4.97445 5.60897 4.02609C5.52008 4.02228 5.42733 4.01465 5.33458 4.01465C4.27339 4.01389 3.21142 4.01312 2.15022 4.01465C1.29925 4.01618 0.861015 4.44725 0.861015 5.28497C0.861015 9.88179 0.861015 14.4786 0.861015 19.0754C0.861015 21.6618 0.861015 24.2483 0.861015 26.8347C0.861015 27.7274 1.28998 28.1485 2.19659 28.1485C4.68303 28.1485 7.16869 28.1485 9.65512 28.1485C10.1026 28.1485 10.309 28.2774 10.319 28.5605C10.3299 28.8535 10.1104 28.9977 9.65203 28.9977C7.1656 28.9977 4.67993 28.9977 2.1935 28.9977C0.817733 28.9977 0 28.1912 0 26.8324C0 19.669 0 12.5041 0 5.33991C0 3.95819 0.805366 3.16624 2.20819 3.16548C3.23151 3.16548 4.25484 3.16548 5.27739 3.16548C5.38096 3.16548 5.48453 3.16548 5.60974 3.16548C5.61901 3.04646 5.62442 2.94575 5.63447 2.8458C5.69167 2.23772 6.13145 1.81657 6.749 1.80742C7.51263 1.79597 8.27626 1.80436 9.08935 1.80436C9.04916 1.0292 9.08162 0.28913 9.98515 -0.000793457H11.8216V-3.04999e-05ZM2.61087 6.97416V26.4258H14.1751C14.1751 26.306 14.1751 26.2045 14.1751 26.1023C14.1751 24.8754 14.1751 23.6486 14.1751 22.4218C14.1751 21.7542 14.4572 21.4742 15.1319 21.4734C16.3747 21.4719 17.6176 21.4734 18.8604 21.4734H19.192C19.1974 21.3559 19.2051 21.2643 19.2051 21.172C19.2051 18.3506 19.2036 15.5292 19.2098 12.7078C19.2098 12.5087 19.1433 12.3751 19.0003 12.2439C18.3395 11.6351 17.7698 10.953 17.3602 10.1511C16.8524 9.15698 16.5695 8.11631 16.7388 6.98332H14.8738C14.8738 7.1794 14.8761 7.35716 14.8738 7.53417C14.8645 8.20328 14.5043 8.56035 13.8203 8.56111C11.8703 8.56416 9.92023 8.56416 7.97019 8.56111C7.29003 8.56035 6.92754 8.20405 6.90976 7.53417C6.90435 7.3503 6.90976 7.16566 6.90976 6.9734H2.61087V6.97416ZM10.874 2.65353C9.56392 2.65353 8.25462 2.65353 6.94454 2.65353C6.54495 2.65353 6.49085 2.70542 6.4893 3.08766C6.48776 3.41802 6.48776 3.74838 6.4893 4.07874C6.49162 4.43428 6.56273 4.50676 6.92909 4.50752C7.73213 4.50981 8.53518 4.50828 9.33823 4.50828C11.1739 4.50828 13.0095 4.50828 14.8452 4.50828C15.2216 4.50828 15.2981 4.43809 15.302 4.094C15.3058 3.77279 15.3035 3.45235 15.302 3.13115C15.3012 2.70542 15.2509 2.6543 14.8305 2.6543C13.5111 2.6543 12.1918 2.6543 10.8724 2.6543L10.874 2.65353ZM15.0554 22.3401V25.7154C16.1869 24.5992 17.3355 23.4655 18.4755 22.3401H15.0554ZM14.8892 6.11431C15.5431 6.11431 16.163 6.10668 16.7836 6.11889C16.9799 6.1227 17.0866 6.05632 17.1956 5.89687C17.8093 4.99658 18.668 4.51973 19.774 4.52812C20.1172 4.53117 20.4603 4.60518 20.8104 4.64714C20.5863 4.20615 20.213 4.01389 19.7222 4.01389C18.6046 4.01389 17.4877 4.01389 16.3701 4.01465C16.3067 4.01465 16.2434 4.02915 16.1684 4.0383C16.1815 4.90197 15.7286 5.33304 14.8892 5.37958V6.11431ZM7.78237 6.09829H13.9988V5.38111H7.78237V6.09829ZM7.79397 7.7127H8.158C9.40856 7.7127 10.6583 7.7127 11.9089 7.7127C12.5296 7.7127 13.1502 7.71804 13.7701 7.70584C13.852 7.70431 13.9911 7.61962 14.0019 7.55782C14.0328 7.36937 14.0128 7.17329 14.0128 6.98026H7.79397V7.71347V7.7127ZM9.99288 1.77995H11.8308C11.8308 1.56174 11.8293 1.3649 11.8308 1.16806C11.8332 0.941459 11.7134 0.845326 11.4923 0.847615C11.2442 0.849904 10.9969 0.847615 10.7488 0.847615C9.91018 0.847615 9.86612 0.897207 9.9666 1.73646C9.96737 1.74485 9.97587 1.75248 9.99288 1.77995Z" fill="#969696"/>
<path d="M7.83335 14.3291C7.65249 14.9128 7.47241 15.4964 7.29078 16.0793C7.17407 16.454 7.06741 16.5341 6.67632 16.5348C6.0835 16.5364 5.49068 16.5379 4.89786 16.5348C4.53846 16.5325 4.34601 16.3723 4.35374 16.0954C4.36147 15.8314 4.54697 15.6895 4.89632 15.6872C5.35542 15.6849 5.81453 15.6757 6.27286 15.6918C6.463 15.6986 6.53874 15.63 6.58898 15.4591C6.85872 14.555 7.13774 13.6547 7.41521 12.7528C7.49405 12.4965 7.56361 12.2203 7.9176 12.2348C8.25304 12.2478 8.30946 12.5148 8.37516 12.7651C8.81958 14.452 9.264 16.1389 9.70919 17.8257C9.72774 17.8967 9.75402 17.9661 9.79499 18.0943C9.88464 17.8669 9.95884 17.6877 10.0269 17.5061C10.2054 17.0285 10.3886 16.5531 10.5547 16.0717C10.6521 15.7894 10.8314 15.6666 11.1337 15.6773C11.5062 15.6902 11.8795 15.6796 12.252 15.6803C12.7057 15.6811 12.7513 15.7131 12.9214 16.1419C12.9423 16.1938 12.967 16.2441 13.0141 16.3494C13.0644 16.1785 13.103 16.0565 13.1347 15.9336C13.3496 15.1028 13.5652 14.2719 13.777 13.441C13.8396 13.1954 13.9408 12.9817 14.2361 12.9802C14.5136 12.9794 14.6187 13.1793 14.6944 13.4113C14.9402 14.1643 15.1945 14.9143 15.4503 15.6811C15.9373 15.6811 16.4141 15.6788 16.8918 15.6811C17.2365 15.6834 17.4305 15.8291 17.4406 16.0847C17.4514 16.3555 17.2504 16.5249 16.8949 16.528C16.35 16.5333 15.8051 16.5249 15.2602 16.531C14.9618 16.5341 14.7748 16.4135 14.6875 16.1251C14.5754 15.7574 14.4455 15.3942 14.2686 15.0219C14.2384 15.1241 14.2044 15.2248 14.1774 15.3278C13.9656 16.1396 13.7515 16.9514 13.5467 17.7655C13.4871 18.0028 13.3944 18.208 13.12 18.2278C12.8263 18.2492 12.7112 18.0386 12.6254 17.8021C12.4932 17.4382 12.3494 17.0788 12.2227 16.7134C12.1748 16.576 12.1052 16.528 11.956 16.5257C11.3091 16.5135 11.3091 16.5081 11.0842 17.1147C10.7789 17.9371 10.4682 18.7581 10.1683 19.5828C10.0864 19.8079 9.96348 19.9796 9.70533 19.9689C9.44718 19.9582 9.3382 19.7789 9.27637 19.5462C8.8304 17.8502 8.37902 16.1549 7.92842 14.4596C7.91683 14.4161 7.90369 14.3734 7.89209 14.3299C7.872 14.3299 7.8519 14.3299 7.83104 14.3299L7.83335 14.3291Z" fill="#969696"/>
</g>
<defs>
<clipPath id="clip0_650_1512">
<rect width="28" height="29" fill="white"/>
</clipPath>
</defs>
</svg>
