<svg width="25" height="27" viewBox="0 0 25 27" fill="none" xmlns="http://www.w3.org/2000/svg">
<g clip-path="url(#clip0_650_1466)">
<path d="M1.13631 27C1.05715 26.9655 0.977267 26.931 0.898105 26.8957C0.347571 26.6549 0.0496353 26.2401 0.00717578 25.6522C0.00141856 25.5733 0.00501682 25.4944 0.00501682 25.4148C0.00501682 19.775 0.00501682 14.1351 0.00501682 8.49601C0.00501682 8.07138 0.135274 7.87562 0.413779 7.87914C0.690126 7.88266 0.813186 8.0756 0.813186 8.50586C0.813186 14.1281 0.813186 19.7503 0.813186 25.3726C0.813186 26.0197 1.00461 26.2099 1.65446 26.2099C7.742 26.2099 17.2702 26.2099 23.3577 26.2099C23.9925 26.2099 24.1911 26.0141 24.1911 25.3909C24.1911 24.5388 24.1904 23.6868 24.1911 22.8347C24.1911 22.5101 24.348 22.3249 24.607 22.3333C24.8546 22.3411 24.9978 22.5199 24.9978 22.8333C24.9993 23.7114 24.9993 24.5902 24.9978 25.4684C24.9978 26.2465 24.674 26.6929 23.9263 26.9549C23.9039 26.9626 23.886 26.9852 23.8665 27.0007H1.13631V27Z" fill="#C0D904"/>
<path d="M19.7415 3.84907C19.7415 4.06878 19.7458 4.25961 19.7415 4.45045C19.7213 5.2673 19.0988 5.88136 18.2935 5.88065C17.489 5.87995 16.8665 5.26519 16.8478 4.44904C16.8434 4.2582 16.8478 4.06737 16.8478 3.86315H13.8151C13.8151 4.06596 13.8187 4.25679 13.8151 4.44763C13.7957 5.2659 13.1761 5.87924 12.3708 5.88136C11.5662 5.88347 10.9408 5.26801 10.9214 4.45326C10.9171 4.26243 10.9214 4.07089 10.9214 3.86527H7.8888C7.8888 4.06314 7.8924 4.25398 7.8888 4.44411C7.86937 5.26449 7.25407 5.87713 6.44806 5.88136C5.63341 5.88558 5.00803 5.26238 4.99436 4.43073C4.99148 4.24834 4.99436 4.06526 4.99436 3.85822C4.28406 3.85822 2.01212 3.84273 1.32485 3.86527C1.02404 3.87512 0.822536 4.15117 0.819658 4.48354C0.813901 5.10745 0.81534 5.73136 0.818938 6.35457C0.820377 6.57076 0.745534 6.73695 0.5246 6.80314C0.253291 6.88412 0.0150866 6.6954 0.012208 6.39049C0.00645074 5.72291 -0.00218509 5.05464 0.0150866 4.38777C0.0337975 3.66176 0.645502 3.07587 1.38962 3.06319C2.0517 3.05193 4.29774 3.06108 4.99436 3.06108C4.99436 2.55547 4.98644 2.07522 4.99796 1.59567C5.003 1.38723 5.01811 1.17034 5.08144 0.973867C5.28942 0.327422 5.96445 -0.0767822 6.63517 0.0196916C7.35122 0.122503 7.87009 0.6936 7.88736 1.42103C7.8996 1.95551 7.88952 2.48999 7.88952 3.04207H10.9221C10.9221 2.52167 10.9221 2.00691 10.9221 1.49145C10.9221 1.05767 11.0603 0.675995 11.3957 0.385165C11.8455 -0.00565917 12.3665 -0.107062 12.922 0.121799C13.4985 0.359111 13.795 0.811904 13.8137 1.41962C13.8303 1.9541 13.8173 2.48858 13.8173 3.04136H16.8499C16.8499 2.73363 16.8499 2.42943 16.8499 2.12522C16.8499 1.8879 16.8442 1.65059 16.8521 1.41328C16.8787 0.616844 17.5091 0.00772044 18.3 0.00842463C19.0902 0.00912882 19.7235 0.61966 19.7429 1.41751C19.7559 1.95199 19.7451 2.48717 19.7451 3.05897C19.8602 3.05897 19.9552 3.05897 20.0502 3.05897C20.6159 3.05897 23.0389 3.05263 23.6046 3.06179C24.3768 3.07446 24.9777 3.66457 25.0029 4.42017C25.005 4.49058 25.0043 4.561 25.0043 4.63072C25.0043 9.97269 25.0043 15.314 25.0043 20.6559C25.0043 21.0834 24.8791 21.27 24.5948 21.2672C24.3141 21.2637 24.1961 21.0799 24.1961 20.6461C24.1961 15.3217 24.1961 9.99804 24.1961 4.67367C24.1961 4.03075 24.009 3.84977 23.3455 3.84977C22.7798 3.84977 20.3575 3.84977 19.7458 3.84977L19.7415 3.84907ZM5.79749 2.93222C5.79749 3.41458 5.79461 3.89695 5.79821 4.37932C5.80181 4.80888 6.04505 5.07999 6.42287 5.08774C6.81364 5.09548 7.07416 4.82015 7.07559 4.38003C7.07991 3.42444 7.07919 2.46816 7.07559 1.51257C7.07416 1.07879 6.80573 0.792186 6.42359 0.799933C6.05153 0.807679 5.80181 1.08795 5.79821 1.51187C5.79461 1.98508 5.79749 2.459 5.79749 2.93222ZM13.0055 2.93222C13.0055 2.459 13.0091 1.98508 13.0048 1.51187C13.0012 1.07809 12.7342 0.791482 12.3521 0.799933C11.9807 0.807679 11.7281 1.08865 11.7267 1.51187C11.7231 2.46745 11.7231 3.42374 11.7267 4.37932C11.7281 4.80888 11.9735 5.07999 12.3521 5.08774C12.7429 5.09548 13.0005 4.82015 13.0048 4.38003C13.0091 3.89766 13.0055 3.41529 13.0055 2.93292V2.93222ZM18.9333 2.95968C18.9333 2.47731 18.9362 1.99494 18.9326 1.51257C18.929 1.07879 18.6634 0.792187 18.2813 0.799228C17.91 0.80627 17.6566 1.08724 17.6552 1.51046C17.6516 2.46604 17.6516 3.42233 17.6552 4.37791C17.6566 4.81874 17.9157 5.09407 18.3065 5.08703C18.685 5.08069 18.929 4.80888 18.9333 4.38003C18.9376 3.90681 18.934 3.43289 18.934 2.95968H18.9333Z" fill="#C0D904"/>
<path d="M13.2069 17.1055C11.8071 17.1055 10.4074 17.109 9.00768 17.1041C8.30098 17.1019 7.8073 16.7062 7.68856 16.0668C7.57197 15.4365 8.01528 14.7908 8.65721 14.6655C8.78819 14.6401 8.9242 14.6295 9.05806 14.6295C11.8129 14.6274 17.6147 14.6267 20.3696 14.6295C21.2 14.6295 21.7614 15.1415 21.757 15.8816C21.7527 16.5492 21.2331 17.0843 20.5336 17.0984C19.6369 17.1167 15.6918 17.1048 14.7944 17.1055C14.2647 17.1055 13.7358 17.1055 13.2061 17.1055H13.2069ZM13.186 16.3154C14.5317 16.3154 18.9245 16.3154 20.2702 16.3154C20.3688 16.3154 20.4689 16.3189 20.5653 16.3041C20.7992 16.2675 20.9323 16.1266 20.946 15.8957C20.9597 15.6647 20.8431 15.5084 20.615 15.4471C20.5221 15.4218 20.4199 15.4203 20.3221 15.4203C17.6046 15.4189 11.8388 15.4189 9.12139 15.4203C9.02351 15.4203 8.92276 15.4225 8.82777 15.4443C8.59532 15.4978 8.48377 15.6598 8.47946 15.8844C8.47514 16.1013 8.65001 16.2788 8.88102 16.3062C8.97818 16.3182 9.07821 16.3154 9.1768 16.3154C10.5132 16.3154 11.8496 16.3154 13.186 16.3154Z" fill="#C0D904"/>
<path d="M13.1776 19.8658C14.5859 19.8658 19.0428 19.8581 20.4511 19.8687C21.3867 19.8757 21.9926 20.7017 21.686 21.5263C21.4968 22.0354 21.0247 22.3397 20.3993 22.3425C19.4213 22.346 15.3956 22.3439 14.4175 22.3439C12.6235 22.3439 10.8286 22.346 9.03455 22.3425C8.31994 22.3411 7.8205 21.9552 7.69456 21.3249C7.55279 20.6151 8.07813 19.9194 8.81722 19.8799C9.37207 19.8503 9.92908 19.8672 10.4854 19.8665C11.3828 19.8651 12.2795 19.8665 13.1769 19.8665L13.1776 19.8658ZM13.1841 20.6559C11.8477 20.6559 10.5113 20.6559 9.17488 20.6559C9.07629 20.6559 8.97698 20.6531 8.87911 20.6651C8.64882 20.6933 8.47466 20.8721 8.4797 21.089C8.48546 21.3137 8.59772 21.4749 8.83017 21.5277C8.92444 21.5496 9.0252 21.551 9.12379 21.551C11.8326 21.5524 17.5891 21.5524 20.2978 21.551C20.413 21.551 20.5346 21.5496 20.6433 21.5158C20.8556 21.4503 20.9606 21.2925 20.947 21.0735C20.9333 20.8545 20.8095 20.7144 20.59 20.6714C20.4857 20.651 20.3756 20.6559 20.2683 20.6559C18.9226 20.6552 14.5298 20.6559 13.1841 20.6559Z" fill="#C0D904"/>
<path d="M13.1861 11.8748C11.7684 11.8748 10.3507 11.8825 8.93294 11.8719C8.08519 11.8656 7.50587 11.1156 7.71313 10.3213C7.85922 9.75937 8.36729 9.39883 9.02649 9.39883C11.5208 9.39742 17.0636 9.39883 19.5579 9.39883C19.8717 9.39883 20.1861 9.39249 20.4999 9.40094C21.2203 9.41995 21.76 9.95795 21.7586 10.6459C21.7564 11.3346 21.2152 11.8698 20.4877 11.8733C19.07 11.8811 14.6045 11.8755 13.1868 11.8755L13.1861 11.8748ZM13.189 11.0854C14.3642 11.0854 18.5871 11.0854 19.7623 11.0854C20.0134 11.0854 20.2653 11.0924 20.5157 11.0804C20.7691 11.0685 20.9367 10.8966 20.9483 10.6628C20.959 10.4298 20.8058 10.241 20.5625 10.1988C20.4841 10.1854 20.4013 10.1889 20.3207 10.1889C17.6026 10.1889 11.8367 10.1889 9.11861 10.1896C9.0121 10.1896 8.90055 10.1903 8.80052 10.2206C8.57455 10.2882 8.46085 10.4565 8.48459 10.6812C8.50834 10.9037 8.64724 11.048 8.884 11.0783C8.97252 11.0896 9.06319 11.0847 9.15243 11.0847C10.4982 11.0847 11.8439 11.0847 13.189 11.0847V11.0854Z" fill="#C0D904"/>
<path d="M4.44406 10.6192C5.13061 9.81219 5.80061 9.0235 6.47061 8.23551C6.52818 8.16791 6.58071 8.09397 6.64908 8.03975C6.81604 7.90806 6.99883 7.90032 7.16507 8.03552C7.33203 8.17072 7.35722 8.34748 7.25431 8.53197C7.21185 8.60803 7.14924 8.67352 7.09167 8.74112C6.32955 9.63825 5.56744 10.5354 4.80389 11.4318C4.48796 11.8022 4.22457 11.7832 3.9655 11.3748C3.74816 11.0318 3.53011 10.6903 3.31853 10.3446C3.16812 10.0988 3.20986 9.86852 3.4164 9.7467C3.62294 9.62487 3.84675 9.69388 4.00508 9.93472C4.15045 10.1544 4.28934 10.3784 4.44335 10.6199L4.44406 10.6192Z" fill="#C0D904"/>
<path d="M4.45975 15.821C5.1355 15.0253 5.8055 14.2366 6.47621 13.4479C6.51651 13.4007 6.55393 13.3507 6.59783 13.3071C6.77199 13.1324 7.00516 13.1134 7.17499 13.2585C7.33836 13.3979 7.36642 13.6141 7.21961 13.8014C7.02962 14.0451 6.82308 14.2767 6.6223 14.5127C6.00916 15.2344 5.39745 15.9576 4.78215 16.6773C4.49861 17.009 4.22154 16.9914 3.99053 16.6309C3.76744 16.2816 3.54723 15.9302 3.32917 15.5774C3.17373 15.3246 3.20323 15.1042 3.40186 14.9746C3.61056 14.8387 3.84588 14.9091 4.0114 15.1605C4.14742 15.3668 4.27839 15.5753 4.41225 15.783C4.41657 15.7901 4.42592 15.7943 4.45975 15.8203V15.821Z" fill="#C0D904"/>
<path d="M4.46063 21.0743C5.11479 20.3039 5.76248 19.5419 6.41017 18.78C6.48501 18.6927 6.55554 18.5997 6.64117 18.5237C6.80094 18.3807 6.98301 18.3667 7.15357 18.4997C7.33276 18.6392 7.36083 18.8195 7.24928 19.0159C7.21906 19.0687 7.17588 19.1152 7.13558 19.1624C6.36771 20.0673 5.60128 20.9722 4.83197 21.8756C4.47574 22.2939 4.23394 22.2756 3.94392 21.8144C3.73738 21.4862 3.52868 21.1588 3.32502 20.8278C3.17245 20.5792 3.20627 20.3532 3.40706 20.225C3.61936 20.0898 3.84245 20.1588 4.01372 20.4187C4.14974 20.625 4.28144 20.8334 4.41529 21.0405C4.41961 21.0475 4.42896 21.051 4.46063 21.0743Z" fill="#C0D904"/>
</g>
<defs>
<clipPath id="clip0_650_1466">
<rect width="25" height="27" fill="white"/>
</clipPath>
</defs>
</svg>
