<svg width="38" height="26" viewBox="0 0 38 26" fill="none" xmlns="http://www.w3.org/2000/svg">
<path d="M22.0632 16.25C23.7709 15.0847 24.9027 13.0923 24.9027 10.8334C24.9027 7.24855 22.0632 4.3335 18.5713 4.3335C15.0795 4.3335 12.24 7.24855 12.24 10.8334C12.24 13.0923 13.3685 15.0847 15.0795 16.25C11.2114 17.7161 8.44189 21.5265 8.44189 25.9999H10.1296C10.1296 21.2224 13.9177 17.3333 18.5713 17.3333C23.225 17.3333 27.0131 21.2224 27.0131 25.9999H28.7008C28.7008 21.5265 25.9313 17.7161 22.0632 16.25ZM13.9277 10.8334C13.9277 8.20543 16.0115 6.06613 18.5713 6.06613C21.1312 6.06613 23.215 8.20543 23.215 10.8334C23.215 13.4614 21.1312 15.6007 18.5713 15.6007C16.0115 15.6007 13.9277 13.4614 13.9277 10.8334Z" fill="#2A411C"/>
<path d="M30.5051 11.9165C32.2128 10.7512 33.3446 8.75884 33.3446 6.49992C33.3446 2.91506 30.5051 0 27.0133 0C25.3222 0 23.7877 0.6869 22.6492 1.80098C22.2298 2.21449 21.8636 2.68267 21.5674 3.20212C22.0933 3.42083 22.596 3.69081 23.0587 4.01546C23.3583 3.51652 23.7411 3.07909 24.1905 2.72368C24.9727 2.10513 25.948 1.73605 27.0099 1.73605C29.5697 1.73605 31.6536 3.87535 31.6536 6.50334C31.6536 8.68365 30.2155 10.5256 28.2649 11.0895C27.8654 11.2057 27.446 11.2706 27.0099 11.2706C26.8601 11.2706 26.7137 11.2604 26.5672 11.2467C26.5372 11.8721 26.4407 12.477 26.2843 13.0545C26.5239 13.034 26.7636 12.9998 27.0099 12.9998C27.3528 12.9998 27.689 13.0272 28.0219 13.0682C32.1995 13.5842 35.4517 17.2409 35.4517 21.6664H37.1394C37.1394 17.193 34.3698 13.3826 30.5018 11.9165H30.5051Z" fill="#2A411C"/>
<path d="M10.1294 12.9998C10.3758 12.9998 10.6154 13.0306 10.8551 13.0545C10.6953 12.4736 10.6021 11.8687 10.5722 11.2467C10.4257 11.2604 10.2792 11.2706 10.1294 11.2706C9.69338 11.2706 9.27396 11.2057 8.8745 11.0895C6.92384 10.5256 5.48581 8.68707 5.48581 6.50334C5.48581 3.87535 7.56962 1.73605 10.1294 1.73605C11.1913 1.73605 12.1667 2.10855 12.9489 2.72368C13.3983 3.07909 13.7844 3.51652 14.0807 4.01546C14.5467 3.69081 15.046 3.42083 15.572 3.20212C15.2724 2.68609 14.9096 2.21449 14.4901 1.80098C13.355 0.6869 11.8171 0 10.1261 0C6.63757 0 3.79813 2.91506 3.79813 6.49992C3.79813 8.75884 4.92658 10.7512 6.63757 11.9165C2.76954 13.3826 0 17.193 0 21.6664H1.68769C1.68769 17.2409 4.9399 13.5842 9.1175 13.0682C9.45038 13.0272 9.78659 12.9998 10.1294 12.9998Z" fill="#2A411C"/>
</svg>
